StickNoBills-Regular.ufo
<glyph name="exclam" format="1">
  <advance width="146"/>
  <unicode hex="0021"/>
  <outline>
    <contour>
      <point x="47" y="12" type="curve" smooth="yes"/>
      <point x="47" y="26"/>
      <point x="59" y="38"/>
      <point x="73" y="38" type="curve" smooth="yes"/>
      <point x="87" y="38"/>
      <point x="99" y="26"/>
      <point x="99" y="12" type="curve" smooth="yes"/>
      <point x="99" y="-2"/>
      <point x="87" y="-14"/>
      <point x="73" y="-14" type="curve" smooth="yes"/>
      <point x="59" y="-14"/>
      <point x="47" y="-2"/>
    </contour>
    <contour>
      <point x="53" y="79" type="line"/>
      <point x="53" y="700" type="line"/>
      <point x="93" y="700" type="line"/>
      <point x="93" y="79" type="line"/>
    </contour>
  </outline>
</glyph>
<glyph name="percent" format="1">
  <advance width="267"/>
  <unicode hex="0025"/>
  <outline>
    <contour>
      <point x="71" y="576" type="curve" smooth="yes"/>
      <point x="71" y="590"/>
      <point x="83" y="602"/>
      <point x="97" y="602" type="curve" smooth="yes"/>
      <point x="111" y="602"/>
      <point x="123" y="590"/>
      <point x="123" y="576" type="curve" smooth="yes"/>
      <point x="123" y="562"/>
      <point x="111" y="550"/>
      <point x="97" y="550" type="curve" smooth="yes"/>
      <point x="83" y="550"/>
      <point x="71" y="562"/>
    </contour>
    <contour>
      <point x="26" y="-23" type="line"/>
      <point x="201" y="716" type="line"/>
      <point x="241" y="716" type="line"/>
      <point x="67" y="-23" type="line"/>
    </contour>
    <contour>
      <point x="142" y="115" type="curve" smooth="yes"/>
      <point x="142" y="129"/>
      <point x="154" y="141"/>
      <point x="168" y="141" type="curve" smooth="yes"/>
      <point x="182" y="141"/>
      <point x="194" y="129"/>
      <point x="194" y="115" type="curve" smooth="yes"/>
      <point x="194" y="101"/>
      <point x="182" y="89"/>
      <point x="168" y="89" type="curve" smooth="yes"/>
      <point x="154" y="89"/>
      <point x="142" y="101"/>
    </contour>
  </outline>
</glyph>
<glyph name="six" format="1">
  <advance width="509"/>
  <unicode hex="0036"/>
  <outline>
    <contour>
      <point x="35" y="358" type="curve" smooth="yes"/>
      <point x="34" y="475"/>
      <point x="65" y="679"/>
      <point x="242" y="697" type="curve"/>
      <point x="242" y="659" type="line"/>
      <point x="91" y="635"/>
      <point x="75" y="444"/>
      <point x="75" y="320" type="curve"/>
      <point x="111" y="395"/>
      <point x="181" y="425"/>
      <point x="242" y="425" type="curve"/>
      <point x="242" y="387" type="line"/>
      <point x="142" y="387"/>
      <point x="91" y="289"/>
      <point x="91" y="211" type="curve" smooth="yes"/>
      <point x="91" y="164"/>
      <point x="126" y="37"/>
      <point x="242" y="37" type="curve"/>
      <point x="242" y="-1" type="line"/>
      <point x="67" y="-1"/>
      <point x="36" y="172"/>
    </contour>
    <contour>
      <point x="287" y="-1" type="curve"/>
      <point x="287" y="37" type="line"/>
      <point x="385" y="37"/>
      <point x="440" y="136"/>
      <point x="440" y="211" type="curve" smooth="yes"/>
      <point x="440" y="335"/>
      <point x="358" y="389"/>
      <point x="287" y="389" type="curve"/>
      <point x="287" y="425" type="line"/>
      <point x="411" y="425"/>
      <point x="479" y="330"/>
      <point x="479" y="212" type="curve" smooth="yes"/>
      <point x="479" y="87"/>
      <point x="388" y="0"/>
    </contour>
    <contour>
      <point x="287" y="660" type="curve"/>
      <point x="287" y="698" type="line"/>
      <point x="365" y="698"/>
      <point x="424" y="659"/>
      <point x="459" y="600" type="curve"/>
      <point x="426" y="578" type="line"/>
      <point x="407" y="611"/>
      <point x="364" y="660"/>
    </contour>
  </outline>
</glyph>
<glyph name="eight" format="1">
  <advance width="475"/>
  <unicode hex="0038"/>
  <outline>
    <contour>
      <point x="15" y="199" type="curve" smooth="yes"/>
      <point x="15" y="292"/>
      <point x="65" y="330"/>
      <point x="93" y="349" type="curve"/>
      <point x="79" y="352"/>
      <point x="22" y="404"/>
      <point x="22" y="499" type="curve" smooth="yes"/>
      <point x="22" y="615"/>
      <point x="125" y="698"/>
      <point x="210" y="698" type="curve"/>
      <point x="210" y="660" type="line"/>
      <point x="117" y="656"/>
      <point x="61" y="570"/>
      <point x="61" y="499" type="curve" smooth="yes"/>
      <point x="61" y="420"/>
      <point x="103" y="368"/>
      <point x="209" y="368" type="curve"/>
      <point x="209" y="330" type="line"/>
      <point x="144" y="330"/>
      <point x="54" y="311"/>
      <point x="54" y="199" type="curve" smooth="yes"/>
      <point x="54" y="90"/>
      <point x="173" y="41"/>
      <point x="207" y="38" type="curve"/>
      <point x="207" y="0" type="line"/>
      <point x="206" y="0" type="line" smooth="yes"/>
      <point x="153" y="0"/>
      <point x="15" y="53"/>
    </contour>
    <contour>
      <point x="254" y="660" type="curve"/>
      <point x="254" y="698" type="line"/>
      <point x="341" y="698"/>
      <point x="441" y="613"/>
      <point x="441" y="499" type="curve" smooth="yes"/>
      <point x="441" y="399"/>
      <point x="385" y="352"/>
      <point x="371" y="349" type="curve"/>
      <point x="399" y="330"/>
      <point x="449" y="300"/>
      <point x="449" y="196" type="curve" smooth="yes"/>
      <point x="449" y="58"/>
      <point x="317" y="0"/>
      <point x="258" y="0" type="curve" smooth="yes"/>
      <point x="257" y="0" type="line"/>
      <point x="257" y="38" type="line"/>
      <point x="297" y="38"/>
      <point x="410" y="91"/>
      <point x="410" y="196" type="curve" smooth="yes"/>
      <point x="410" y="330"/>
      <point x="300" y="330"/>
      <point x="255" y="330" type="curve"/>
      <point x="255" y="368" type="line"/>
      <point x="370" y="368"/>
      <point x="402" y="414"/>
      <point x="402" y="499" type="curve" smooth="yes"/>
      <point x="402" y="574"/>
      <point x="347" y="655"/>
    </contour>
  </outline>
</glyph>
<glyph name="colon" format="1">
  <advance width="153"/>
  <unicode hex="003A"/>
  <outline>
    <contour>
      <point x="50" y="21" type="curve" smooth="yes"/>
      <point x="50" y="35"/>
      <point x="62" y="47"/>
      <point x="76" y="47" type="curve" smooth="yes"/>
      <point x="90" y="47"/>
      <point x="102" y="35"/>
      <point x="102" y="21" type="curve" smooth="yes"/>
      <point x="102" y="7"/>
      <point x="90" y="-5"/>
      <point x="76" y="-5" type="curve" smooth="yes"/>
      <point x="62" y="-5"/>
      <point x="50" y="7"/>
    </contour>
    <contour>
      <point x="51" y="311" type="curve" smooth="yes"/>
      <point x="51" y="325"/>
      <point x="63" y="337"/>
      <point x="77" y="337" type="curve" smooth="yes"/>
      <point x="91" y="337"/>
      <point x="103" y="325"/>
      <point x="103" y="311" type="curve" smooth="yes"/>
      <point x="103" y="297"/>
      <point x="91" y="285"/>
      <point x="77" y="285" type="curve" smooth="yes"/>
      <point x="63" y="285"/>
      <point x="51" y="297"/>
    </contour>
  </outline>
</glyph>
<glyph name="j" format="1">
  <advance width="201"/>
  <unicode hex="006A"/>
  <outline>
    <contour>
      <point x="-42" y="-181" type="line"/>
      <point x="-33" y="-143" type="line"/>
      <point x="-22" y="-143" type="line"/>
      <point x="33" y="-140"/>
      <point x="85" y="-85"/>
      <point x="85" y="-35" type="curve" smooth="yes"/>
      <point x="85" y="516" type="line"/>
      <point x="125" y="516" type="line"/>
      <point x="125" y="-35" type="line" smooth="yes"/>
      <point x="125" y="-82"/>
      <point x="77" y="-181"/>
      <point x="-25" y="-181" type="curve" smooth="yes"/>
    </contour>
    <contour>
      <point x="79" y="583" type="curve" smooth="yes"/>
      <point x="79" y="598"/>
      <point x="92" y="610"/>
      <point x="107" y="610" type="curve" smooth="yes"/>
      <point x="122" y="610"/>
      <point x="134" y="598"/>
      <point x="134" y="583" type="curve" smooth="yes"/>
      <point x="134" y="568"/>
      <point x="122" y="556"/>
      <point x="107" y="556" type="curve" smooth="yes"/>
      <point x="92" y="556"/>
      <point x="79" y="568"/>
    </contour>
  </outline>
</glyph>
<glyph name="k" format="1">
  <advance width="460"/>
  <unicode hex="006B"/>
  <outline>
    <contour>
      <point x="42" y="0" type="line"/>
      <point x="42" y="698" type="line"/>
      <point x="82" y="698" type="line"/>
      <point x="82" y="0" type="line"/>
    </contour>
    <contour>
      <point x="104" y="257" type="line"/>
      <point x="380" y="514" type="line"/>
      <point x="440" y="514" type="line"/>
      <point x="164" y="257" type="line"/>
      <point x="440" y="0" type="line"/>
      <point x="380" y="0" type="line"/>
    </contour>
  </outline>
</glyph>
<glyph name="m" format="1">
  <advance width="700"/>
  <unicode hex="006D"/>
  <outline>
    <contour>
      <point x="38" y="0" type="line"/>
      <point x="38" y="377" type="line" smooth="yes"/>
      <point x="38" y="429"/>
      <point x="68" y="519"/>
      <point x="181" y="519" type="curve"/>
      <point x="181" y="481" type="line"/>
      <point x="117" y="481"/>
      <point x="78" y="431"/>
      <point x="78" y="372" type="curve" smooth="yes"/>
      <point x="78" y="0" type="line"/>
    </contour>
    <contour>
      <point x="225" y="481" type="curve"/>
      <point x="225" y="519" type="line"/>
      <point x="297" y="519"/>
      <point x="326" y="490"/>
      <point x="350" y="450" type="curve"/>
      <point x="374" y="490"/>
      <point x="402" y="519"/>
      <point x="474" y="519" type="curve"/>
      <point x="474" y="481" type="line"/>
      <point x="410" y="481"/>
      <point x="370" y="431"/>
      <point x="370" y="372" type="curve"/>
      <point x="370" y="0" type="line"/>
      <point x="330" y="0" type="line"/>
      <point x="330" y="372" type="line" smooth="yes"/>
      <point x="330" y="431"/>
      <point x="289" y="481"/>
    </contour>
    <contour>
      <point x="518" y="481" type="curve"/>
      <point x="518" y="519" type="line"/>
      <point x="628" y="519"/>
      <point x="662" y="426"/>
      <point x="662" y="377" type="curve" smooth="yes"/>
      <point x="662" y="0" type="line"/>
      <point x="622" y="0" type="line"/>
      <point x="622" y="372" type="line" smooth="yes"/>
      <point x="622" y="433"/>
      <point x="581" y="481"/>
    </contour>
  </outline>
</glyph>
<glyph name="q" format="1">
  <advance width="438"/>
  <unicode hex="0071"/>
  <outline>
    <contour>
      <point x="38" y="139" type="curve"/>
      <point x="38" y="375" type="line" smooth="yes"/>
      <point x="38" y="427"/>
      <point x="85" y="516"/>
      <point x="203" y="516" type="curve" smooth="yes"/>
      <point x="311" y="516" type="line"/>
      <point x="311" y="478" type="line"/>
      <point x="203" y="478" type="line" smooth="yes"/>
      <point x="117" y="478"/>
      <point x="78" y="413"/>
      <point x="78" y="372" type="curve"/>
      <point x="78" y="143" type="line" smooth="yes"/>
      <point x="78" y="92"/>
      <point x="123" y="38"/>
      <point x="201" y="38" type="curve" smooth="yes"/>
      <point x="304" y="38" type="line"/>
      <point x="304" y="0" type="line"/>
      <point x="203" y="0" type="line" smooth="yes"/>
      <point x="90" y="0"/>
      <point x="38" y="86"/>
    </contour>
    <contour>
      <point x="356" y="-182" type="line"/>
      <point x="356" y="516" type="line"/>
      <point x="396" y="516" type="line"/>
      <point x="396" y="-182" type="line"/>
    </contour>
  </outline>
</glyph>
<glyph name="r" format="1">
  <advance width="223"/>
  <unicode hex="0072"/>
  <outline>
    <contour>
      <point x="42" y="0" type="line"/>
      <point x="42" y="516" type="line"/>
      <point x="82" y="516" type="line"/>
      <point x="82" y="431" type="line"/>
      <point x="95" y="464"/>
      <point x="141" y="515"/>
      <point x="212" y="515" type="curve" smooth="yes"/>
      <point x="213" y="515" type="line"/>
      <point x="203" y="478" type="line"/>
      <point x="143" y="478"/>
      <point x="82" y="390"/>
      <point x="82" y="308" type="curve" smooth="yes"/>
      <point x="82" y="0" type="line"/>
    </contour>
  </outline>
</glyph>
<glyph name="z" format="1">
  <advance width="356"/>
  <unicode hex="007A"/>
  <outline>
    <contour>
      <point x="30" y="0" type="line"/>
      <point x="31" y="37" type="line"/>
      <point x="284" y="476" type="line"/>
      <point x="30" y="476" type="line"/>
      <point x="30" y="514" type="line"/>
      <point x="326" y="514" type="line"/>
      <point x="326" y="482" type="line"/>
      <point x="72" y="38" type="line"/>
      <point x="326" y="38" type="line"/>
      <point x="326" y="0" type="line"/>
    </contour>
  </outline>
</glyph>
<glyph name="uni00B5" format="1">
  <advance width="491"/>
  <unicode hex="00B5"/>
  <outline>
    <contour>
      <point x="35" y="0" type="line"/>
      <point x="35" y="698" type="line"/>
      <point x="75" y="698" type="line"/>
      <point x="75" y="316" type="line" smooth="yes"/>
      <point x="75" y="285.983"/>
      <point x="136.528" y="258"/>
      <point x="201" y="258" type="curve"/>
      <point x="201" y="220" type="line"/>
      <point x="131.446" y="220"/>
      <point x="87.0123" y="250.269"/>
      <point x="75" y="257" type="curve"/>
      <point x="75" y="0" type="line"/>
    </contour>
    <contour>
      <point x="243" y="220" type="curve"/>
      <point x="243" y="258" type="line"/>
      <point x="305.506" y="258"/>
      <point x="369" y="284.985"/>
      <point x="369" y="316" type="curve" smooth="yes"/>
      <point x="369" y="698" type="line"/>
      <point x="369" y="700" type="line"/>
      <point x="409" y="700" type="line"/>
      <point x="409" y="698" type="line"/>
      <point x="409" y="315" type="line" smooth="yes"/>
      <point x="409" y="279.518"/>
      <point x="413.072" y="261"/>
      <point x="451" y="261" type="curve"/>
      <point x="451" y="222" type="line"/>
      <point x="407.841" y="222"/>
      <point x="392.167" y="234.367"/>
      <point x="376" y="257" type="curve"/>
      <point x="348.627" y="235.943"/>
      <point x="299.572" y="220"/>
    </contour>
  </outline>
</glyph>
<glyph name="onehalf" format="1">
  <advance width="581"/>
  <unicode hex="00BD"/>
  <outline>
    <contour>
      <point x="86" y="644" type="line"/>
      <point x="86" y="672" type="line"/>
      <point x="124" y="701.5" type="line"/>
      <point x="144" y="701.5" type="line"/>
      <point x="144" y="352" type="line"/>
      <point x="124" y="352" type="line"/>
      <point x="124" y="674" type="line"/>
    </contour>
    <contour>
      <point x="340.973" y="261" type="line"/>
      <point x="345.473" y="303"/>
      <point x="375.973" y="346.5"/>
      <point x="428.973" y="351" type="curve"/>
      <point x="428.973" y="332" type="line" smooth="yes"/>
      <point x="428.973" y="332"/>
      <point x="371.473" y="330.5"/>
      <point x="359.473" y="257" type="curve"/>
    </contour>
    <contour>
      <point x="350.473" y="1" type="line"/>
      <point x="350.473" y="20" type="line"/>
      <point x="552.473" y="20" type="line"/>
      <point x="552.473" y="1" type="line"/>
    </contour>
    <contour>
      <point x="350.473" y="41" type="line"/>
      <point x="350.473" y="129.5"/>
      <point x="454.473" y="165"/>
      <point x="472.973" y="174" type="curve" smooth="yes"/>
      <point x="500.973" y="187.5"/>
      <point x="535.473" y="205"/>
      <point x="535.473" y="248" type="curve" smooth="yes"/>
      <point x="535.473" y="290.5"/>
      <point x="519.473" y="332"/>
      <point x="451.473" y="332" type="curve"/>
      <point x="451.473" y="351" type="line"/>
      <point x="530.473" y="351"/>
      <point x="556.473" y="300.5"/>
      <point x="555.473" y="248" type="curve" smooth="yes"/>
      <point x="554.473" y="206"/>
      <point x="531.973" y="183"/>
      <point x="497.973" y="165.5" type="curve" smooth="yes"/>
      <point x="460.973" y="146.5"/>
      <point x="370.473" y="116.5"/>
      <point x="370.473" y="41" type="curve"/>
    </contour>
    <contour>
      <point x="52" y="-2" type="line"/>
      <point x="484" y="702" type="line"/>
      <point x="509" y="702" type="line"/>
      <point x="77" y="-2" type="line"/>
    </contour>
  </outline>
</glyph>
<glyph name="threequarters" format="1">
  <advance width="584"/>
  <unicode hex="00BE"/>
  <outline>
    <contour>
      <point x="28" y="397.5" type="curve"/>
      <point x="44.5" y="407.5" type="line"/>
      <point x="65" y="374"/>
      <point x="79.5" y="369"/>
      <point x="112.5" y="367.5" type="curve"/>
      <point x="112.5" y="348.5" type="line"/>
      <point x="73.5" y="348.5"/>
      <point x="45" y="364"/>
    </contour>
    <contour>
      <point x="28" y="649" type="line"/>
      <point x="44.5" y="677"/>
      <point x="73.5" y="698"/>
      <point x="112.5" y="698" type="curve"/>
      <point x="112.5" y="679" type="line"/>
      <point x="94.5" y="679"/>
      <point x="63.5" y="670"/>
      <point x="44.5" y="639" type="curve"/>
    </contour>
    <contour>
      <point x="142.5" y="349" type="curve"/>
      <point x="142.5" y="368" type="line"/>
      <point x="164" y="368"/>
      <point x="223.5" y="392"/>
      <point x="223.5" y="449.5" type="curve" smooth="yes"/>
      <point x="223.5" y="488.5"/>
      <point x="207" y="513.5"/>
      <point x="159" y="513.5" type="curve"/>
      <point x="159" y="532.5" type="line"/>
      <point x="209" y="532.5"/>
      <point x="221" y="558.5"/>
      <point x="221" y="598.5" type="curve" smooth="yes"/>
      <point x="221" y="652.52"/>
      <point x="173.006" y="679"/>
      <point x="141" y="679" type="curve"/>
      <point x="141" y="698" type="line"/>
      <point x="208" y="696.5"/>
      <point x="241.5" y="640"/>
      <point x="241.5" y="603" type="curve" smooth="yes"/>
      <point x="241.5" y="554.5"/>
      <point x="226" y="532"/>
      <point x="210.5" y="524" type="curve"/>
      <point x="224.5" y="514.5"/>
      <point x="244" y="491"/>
      <point x="244" y="448.5" type="curve" smooth="yes"/>
      <point x="244" y="385.91"/>
      <point x="183.227" y="349"/>
    </contour>
    <contour>
      <point x="295" y="70.5" type="line"/>
      <point x="295" y="89.5" type="line"/>
      <point x="440.5" y="336.5" type="line"/>
      <point x="440.5" y="302" type="line"/>
      <point x="316.5" y="89.5" type="line"/>
      <point x="440.5" y="89.5" type="line"/>
      <point x="440.5" y="70.5" type="line"/>
    </contour>
    <contour>
      <point x="463" y="-2" type="line"/>
      <point x="463" y="348.5" type="line"/>
      <point x="483" y="348.5" type="line"/>
      <point x="483" y="89.5" type="line"/>
      <point x="510.5" y="89.5" type="line"/>
      <point x="510.5" y="70.5" type="line"/>
      <point x="483" y="70.5" type="line"/>
      <point x="483" y="-2" type="line"/>
    </contour>
    <contour>
      <point x="75" y="-2" type="line"/>
      <point x="507" y="702" type="line"/>
      <point x="532" y="702" type="line"/>
      <point x="100" y="-2" type="line"/>
    </contour>
  </outline>
</glyph>
<glyph name="tml_I" format="1">
  <advance width="1143"/>
  <unicode hex="0B87"/>
  <outline>
    <contour>
      <point x="405" y="435" type="curve" smooth="yes"/>
      <point x="405" y="555"/>
      <point x="491.521" y="644"/>
      <point x="623" y="644" type="curve" smooth="yes"/>
      <point x="775.842" y="644"/>
      <point x="865" y="549"/>
      <point x="865" y="342" type="curve"/>
      <point x="865" y="173" type="line"/>
      <point x="825" y="173" type="line"/>
      <point x="825" y="345" type="line" smooth="yes"/>
      <point x="825" y="547"/>
      <point x="735.131" y="604"/>
      <point x="623" y="604" type="curve" smooth="yes"/>
      <point x="513.903" y="604"/>
      <point x="445" y="530"/>
      <point x="445" y="435" type="curve" smooth="yes"/>
      <point x="445" y="340"/>
      <point x="510" y="278"/>
      <point x="596" y="278" type="curve" smooth="yes"/>
      <point x="667" y="278"/>
      <point x="733" y="324"/>
      <point x="733" y="392" type="curve" smooth="yes"/>
      <point x="765" y="358" type="line" smooth="yes"/>
      <point x="760" y="295"/>
      <point x="685" y="238"/>
      <point x="596" y="238" type="curve" smooth="yes"/>
      <point x="506" y="238"/>
      <point x="405" y="301"/>
    </contour>
    <contour>
      <point x="588" y="141" type="curve"/>
      <point x="588" y="181" type="line"/>
      <point x="651.27" y="181"/>
      <point x="801.73" y="181"/>
      <point x="865" y="181" type="curve"/>
      <point x="866" y="16" type="line"/>
      <point x="866" y="-86"/>
      <point x="808.619" y="-178"/>
      <point x="709" y="-178" type="curve" smooth="yes"/>
      <point x="590" y="-178" type="line" smooth="yes"/>
      <point x="590" y="-138" type="line"/>
      <point x="710" y="-138" type="line" smooth="yes"/>
      <point x="773.806" y="-137"/>
      <point x="825" y="-80"/>
      <point x="825" y="18" type="curve"/>
      <point x="825" y="141" type="line"/>
      <point x="794.539" y="141"/>
      <point x="618.461" y="141"/>
    </contour>
    <contour>
      <point x="77" y="21" type="curve" smooth="yes"/>
      <point x="77" y="137"/>
      <point x="161" y="182"/>
      <point x="291" y="182" type="curve" smooth="yes"/>
      <point x="533" y="182" type="line"/>
      <point x="533" y="140" type="line"/>
      <point x="273" y="140" type="line" smooth="yes"/>
      <point x="249" y="140"/>
      <point x="117" y="144.5"/>
      <point x="117" y="21" type="curve" smooth="yes"/>
      <point x="117" y="-99.0156"/>
      <point x="218" y="-138"/>
      <point x="278" y="-138" type="curve" smooth="yes"/>
      <point x="534" y="-138" type="line"/>
      <point x="534" y="-178" type="line"/>
      <point x="280" y="-178" type="line" smooth="yes"/>
      <point x="168" y="-178"/>
      <point x="77" y="-98"/>
    </contour>
    <contour>
      <point x="255" y="142" type="line"/>
      <point x="169.286" y="504"/>
      <point x="300.113" y="803"/>
      <point x="615" y="803" type="curve" smooth="yes"/>
      <point x="881.577" y="803"/>
      <point x="1040.25" y="636"/>
      <point x="1033" y="244" type="curve"/>
      <point x="993" y="244" type="line"/>
      <point x="1000.18" y="563"/>
      <point x="893.419" y="763"/>
      <point x="618" y="763" type="curve" smooth="yes"/>
      <point x="299.219" y="763"/>
      <point x="221.75" y="439"/>
      <point x="301" y="146" type="curve"/>
    </contour>
    <contour>
      <point x="250.375" y="160" type="curve"/>
      <point x="297.375" y="160" type="line"/>
      <point x="320.086" y="44"/>
      <point x="409" y="-95"/>
      <point x="527" y="-146.066" type="curve"/>
      <point x="487" y="-170.066" type="line" smooth="yes"/>
      <point x="380" y="-122"/>
      <point x="283" y="28"/>
    </contour>
    <contour>
      <point x="831" y="-169" type="curve"/>
      <point x="850" y="-130" type="line"/>
      <point x="913" y="-138"/>
      <point x="1022" y="-99"/>
      <point x="1022" y="29" type="curve" smooth="yes"/>
      <point x="1022" y="83"/>
      <point x="1000" y="141"/>
      <point x="865" y="141" type="curve"/>
      <point x="865" y="181" type="line"/>
      <point x="1004" y="181"/>
      <point x="1062" y="120"/>
      <point x="1062" y="36" type="curve" smooth="yes"/>
      <point x="1062" y="2" type="line"/>
      <point x="1062" y="-66"/>
      <point x="988" y="-188"/>
    </contour>
  </outline>
</glyph>
<glyph name="tml_E" format="1">
  <advance width="666"/>
  <unicode hex="0B8E"/>
  <outline>
    <contour>
      <point x="247" y="0" type="curve"/>
      <point x="247" y="40" type="line"/>
      <point x="291.449" y="40"/>
      <point x="341" y="88"/>
      <point x="341" y="182.617" type="curve" smooth="yes"/>
      <point x="341" y="282"/>
      <point x="289.264" y="319"/>
      <point x="247" y="319" type="curve"/>
      <point x="247" y="359" type="line" smooth="yes"/>
      <point x="320.184" y="359"/>
      <point x="383" y="292"/>
      <point x="383" y="196" type="curve" smooth="yes"/>
      <point x="383" y="173" type="line" smooth="yes"/>
      <point x="383.805" y="75"/>
      <point x="319.207" y="0"/>
    </contour>
    <contour>
      <point x="40" y="172" type="curve" smooth="yes"/>
      <point x="40" y="196" type="line" smooth="yes"/>
      <point x="40" y="300"/>
      <point x="116" y="359"/>
      <point x="192" y="359" type="curve"/>
      <point x="192" y="319" type="line" smooth="yes"/>
      <point x="154.616" y="319"/>
      <point x="79" y="295"/>
      <point x="79" y="181" type="curve" smooth="yes"/>
      <point x="79" y="91"/>
      <point x="141.872" y="40"/>
      <point x="192" y="40" type="curve"/>
      <point x="192" y="0" type="line" smooth="yes"/>
      <point x="103.628" y="0"/>
      <point x="40" y="88"/>
    </contour>
    <contour>
      <point x="40" y="204" type="line"/>
      <point x="40" y="302" type="line"/>
      <point x="40" y="464.357"/>
      <point x="126.769" y="597"/>
      <point x="267" y="597" type="curve"/>
      <point x="267" y="557" type="line"/>
      <point x="150.019" y="557"/>
      <point x="81.708" y="439.146"/>
      <point x="80" y="306" type="curve" smooth="yes"/>
    </contour>
    <contour>
      <point x="321.991" y="555" type="line"/>
      <point x="321.991" y="595" type="line"/>
      <point x="626.991" y="595" type="line"/>
      <point x="626.991" y="555" type="line"/>
    </contour>
    <contour>
      <point x="485.991" y="0" type="line"/>
      <point x="485.991" y="577" type="line"/>
      <point x="525.991" y="577" type="line"/>
      <point x="525.991" y="0" type="line"/>
    </contour>
  </outline>
</glyph>
<glyph name="tml_Nga" format="1">
  <advance width="895"/>
  <unicode hex="0B99"/>
  <outline>
    <contour>
      <point x="775" y="0" type="line"/>
      <point x="775" y="595" type="line"/>
      <point x="815" y="595" type="line"/>
      <point x="815" y="0" type="line"/>
    </contour>
    <contour>
      <point x="333" y="0" type="line"/>
      <point x="333" y="40" type="line"/>
      <point x="722" y="40" type="line"/>
      <point x="722" y="0" type="line"/>
    </contour>
    <contour>
      <point x="275" y="0" type="line"/>
      <point x="275" y="40" type="line"/>
      <point x="301.526" y="40"/>
      <point x="389.144" y="40"/>
      <point x="443" y="40" type="curve" smooth="yes"/>
      <point x="507" y="40"/>
      <point x="545" y="70"/>
      <point x="545" y="123" type="curve" smooth="yes"/>
      <point x="545" y="224" type="line" smooth="yes"/>
      <point x="545" y="304"/>
      <point x="466" y="314"/>
      <point x="416" y="314" type="curve" smooth="yes"/>
      <point x="416" y="354" type="line"/>
      <point x="502" y="354"/>
      <point x="585" y="322"/>
      <point x="585" y="229" type="curve" smooth="yes"/>
      <point x="585" y="118" type="line" smooth="yes"/>
      <point x="585" y="33"/>
      <point x="507" y="0"/>
      <point x="443" y="0" type="curve" smooth="yes"/>
    </contour>
    <contour>
      <point x="322" y="80" type="line"/>
      <point x="362" y="80" type="line"/>
      <point x="362" y="589" type="line"/>
      <point x="322" y="589" type="line"/>
    </contour>
    <contour>
      <point x="81" y="0" type="line"/>
      <point x="121" y="0" type="line"/>
      <point x="121" y="591" type="line"/>
      <point x="81" y="591" type="line"/>
    </contour>
    <contour>
      <point x="81" y="595" type="line"/>
      <point x="82" y="555" type="line"/>
      <point x="471" y="555" type="line"/>
      <point x="471" y="595" type="line"/>
    </contour>
  </outline>
</glyph>
<glyph name="tml_Ja" format="1">
  <advance width="0"/>
  <unicode hex="0B9C"/>
  <outline>
    <contour>
      <point x="675" y="196" type="line"/>
      <point x="692" y="196" type="line" smooth="yes"/>
      <point x="772" y="196"/>
      <point x="864" y="218"/>
      <point x="866" y="387" type="curve" smooth="yes"/>
      <point x="866" y="502" type="line"/>
      <point x="866" y="617.396"/>
      <point x="788.271" y="677.804"/>
      <point x="702" y="684" type="curve"/>
      <point x="702" y="644" type="line"/>
      <point x="738.711" y="638.903"/>
      <point x="826" y="617.785"/>
      <point x="826" y="502" type="curve"/>
      <point x="826" y="419" type="line"/>
      <point x="821.868" y="291"/>
      <point x="812" y="236"/>
      <point x="678" y="236" type="curve" smooth="yes"/>
      <point x="675" y="236" type="line" smooth="yes"/>
      <point x="261" y="236" type="line" smooth="yes"/>
      <point x="136.903" y="236"/>
      <point x="92" y="138"/>
      <point x="92" y="64" type="curve" smooth="yes"/>
      <point x="92" y="25" type="line" smooth="yes"/>
      <point x="92" y="-57"/>
      <point x="158.84" y="-180"/>
      <point x="285" y="-180" type="curve"/>
      <point x="285" y="-140" type="line"/>
      <point x="212.906" y="-140"/>
      <point x="132" y="-78"/>
      <point x="132" y="46" type="curve" smooth="yes"/>
      <point x="132" y="172"/>
      <point x="209.012" y="196"/>
      <point x="254" y="196" type="curve" smooth="yes"/>
    </contour>
    <contour>
      <point x="502" y="371" type="line"/>
      <point x="502" y="480" type="line" smooth="yes"/>
      <point x="502" y="605.611"/>
      <point x="560.037" y="675.5"/>
      <point x="648" y="684" type="curve"/>
      <point x="648" y="644" type="line"/>
      <point x="612.918" y="636.5"/>
      <point x="541" y="619.625"/>
      <point x="541" y="464" type="curve" smooth="yes"/>
      <point x="541" y="371" type="line"/>
    </contour>
    <contour>
      <point x="67" y="471" type="curve" smooth="yes"/>
      <point x="68" y="496" type="line" smooth="yes"/>
      <point x="68" y="581"/>
      <point x="178.195" y="686.299"/>
      <point x="228" y="686" type="curve" smooth="yes"/>
      <point x="341.999" y="685.316"/>
      <point x="399" y="604"/>
      <point x="399" y="499" type="curve" smooth="yes"/>
      <point x="399" y="471" type="line" smooth="yes"/>
      <point x="399" y="410"/>
      <point x="334.122" y="307"/>
      <point x="259" y="307" type="curve"/>
      <point x="259" y="344" type="line"/>
      <point x="282.52" y="344"/>
      <point x="362" y="394"/>
      <point x="362" y="499" type="curve" smooth="yes"/>
      <point x="362" y="612"/>
      <point x="286.246" y="649"/>
      <point x="234.375" y="649" type="curve" smooth="yes"/>
      <point x="189.351" y="649"/>
      <point x="108" y="595.727"/>
      <point x="108" y="481" type="curve" smooth="yes"/>
      <point x="108" y="380"/>
      <point x="183.272" y="343"/>
      <point x="205" y="343" type="curve"/>
      <point x="205" y="307" type="line"/>
      <point x="125.193" y="307"/>
      <point x="67" y="397"/>
    </contour>
    <contour>
      <point x="67" y="472" type="line"/>
      <point x="67" y="482" type="line" smooth="yes"/>
      <point x="67" y="537"/>
      <point x="95.567" y="696"/>
      <point x="300" y="696" type="curve"/>
      <point x="470" y="696"/>
      <point x="541" y="592"/>
      <point x="541" y="460" type="curve" smooth="yes"/>
      <point x="541" y="320" type="line"/>
      <point x="502" y="320" type="line"/>
      <point x="502" y="481" type="line" smooth="yes"/>
      <point x="502" y="537"/>
      <point x="461" y="660"/>
      <point x="301" y="660" type="curve" smooth="yes"/>
      <point x="187.25" y="660"/>
      <point x="107.097" y="616"/>
      <point x="105" y="483" type="curve"/>
    </contour>
    <contour>
      <point x="575" y="-137" type="line" smooth="yes"/>
      <point x="646" y="-137"/>
      <point x="822.138" y="-138"/>
      <point x="820" y="-14" type="curve" smooth="yes"/>
      <point x="818.207" y="90"/>
      <point x="706" y="99"/>
      <point x="674" y="100" type="curve"/>
      <point x="674" y="140" type="line"/>
      <point x="761" y="140"/>
      <point x="860" y="97"/>
      <point x="860" y="-16" type="curve" smooth="yes"/>
      <point x="860" y="-151"/>
      <point x="730" y="-177"/>
      <point x="575" y="-177" type="curve" smooth="yes"/>
    </contour>
    <contour>
      <point x="346" y="-140" type="curve"/>
      <point x="346" y="-180" type="line"/>
      <point x="453" y="-180"/>
      <point x="521.062" y="-134.681"/>
      <point x="528" y="-59" type="curve" smooth="yes"/>
      <point x="539.373" y="65.0678"/>
      <point x="528" y="100"/>
      <point x="587" y="100" type="curve"/>
      <point x="620" y="100" type="line"/>
      <point x="620" y="140" type="line"/>
      <point x="585" y="140" type="line"/>
      <point x="498" y="140"/>
      <point x="494.899" y="82.311"/>
      <point x="489" y="-23" type="curve" smooth="yes"/>
      <point x="483.301" y="-124.726"/>
      <point x="421" y="-140"/>
    </contour>
  </outline>
</glyph>
<glyph name="tml_Rra" format="1">
  <advance width="786"/>
  <unicode hex="0BB1"/>
  <outline>
    <contour>
      <point x="80" y="-256" type="curve"/>
      <point x="120" y="-256" type="line"/>
      <point x="120" y="-145.109"/>
      <point x="152.434" y="-116"/>
      <point x="205" y="-116" type="curve" smooth="yes"/>
      <point x="499" y="-116" type="line" smooth="yes"/>
      <point x="610.632" y="-114.356"/>
      <point x="654" y="-22.3018"/>
      <point x="654" y="64" type="curve" smooth="yes"/>
      <point x="654" y="475" type="line" smooth="yes"/>
      <point x="654" y="530"/>
      <point x="614.817" y="606"/>
      <point x="528" y="606" type="curve"/>
      <point x="528" y="566" type="line"/>
      <point x="543.258" y="566"/>
      <point x="614" y="560"/>
      <point x="614" y="460" type="curve" smooth="yes"/>
      <point x="614" y="64" type="line" smooth="yes"/>
      <point x="614.212" y="-20.4697"/>
      <point x="568.25" y="-76"/>
      <point x="500" y="-76" type="curve" smooth="yes"/>
      <point x="212" y="-76" type="line" smooth="yes"/>
      <point x="152.976" y="-76"/>
      <point x="80" y="-95.1494"/>
    </contour>
    <contour>
      <point x="110" y="0" type="line"/>
      <point x="110" y="479" type="line" smooth="yes"/>
      <point x="110" y="529"/>
      <point x="140.549" y="606"/>
      <point x="224" y="606" type="curve"/>
      <point x="224" y="566" type="line"/>
      <point x="162.442" y="566"/>
      <point x="149.878" y="502.999"/>
      <point x="150" y="474" type="curve" smooth="yes"/>
      <point x="152" y="0" type="line"/>
    </contour>
    <contour>
      <point x="277" y="566" type="curve"/>
      <point x="277" y="606" type="line"/>
      <point x="323" y="606"/>
      <point x="353" y="593.586"/>
      <point x="377" y="561" type="curve"/>
      <point x="405" y="596.689"/>
      <point x="438" y="606"/>
      <point x="477" y="606" type="curve"/>
      <point x="477" y="566" type="line"/>
      <point x="432" y="566"/>
      <point x="395.59" y="542.186"/>
      <point x="396" y="450" type="curve" smooth="yes"/>
      <point x="398" y="0" type="line"/>
      <point x="358" y="0" type="line"/>
      <point x="356" y="449" type="line" smooth="yes"/>
      <point x="355.585" y="542.167"/>
      <point x="329" y="566"/>
    </contour>
  </outline>
</glyph>
<glyph name="tml_Month" format="1">
  <advance width="821"/>
  <unicode hex="0BF4"/>
  <outline>
    <contour>
      <point x="364" y="634" type="curve" smooth="yes"/>
      <point x="404" y="634" type="line"/>
      <point x="404.225" y="701.415"/>
      <point x="426" y="734.856"/>
      <point x="437" y="745" type="curve" smooth="yes"/>
      <point x="490" y="793.876"/>
      <point x="559.571" y="771"/>
      <point x="552" y="718" type="curve" smooth="yes"/>
      <point x="544.001" y="662"/>
      <point x="460.529" y="652"/>
      <point x="462" y="727" type="curve" smooth="yes"/>
      <point x="462.51" y="752.995"/>
      <point x="481" y="840"/>
      <point x="552" y="840" type="curve" smooth="yes"/>
      <point x="647" y="840"/>
      <point x="648" y="722"/>
      <point x="642" y="654" type="curve"/>
      <point x="781" y="654" type="line" smooth="yes"/>
      <point x="781" y="694" type="line" smooth="yes"/>
      <point x="683" y="694" type="line" smooth="yes"/>
      <point x="683" y="834"/>
      <point x="626" y="880"/>
      <point x="553" y="880" type="curve" smooth="yes"/>
      <point x="485" y="880"/>
      <point x="422" y="812"/>
      <point x="422" y="723" type="curve" smooth="yes"/>
      <point x="422" y="689"/>
      <point x="440" y="634"/>
      <point x="499" y="634" type="curve" smooth="yes"/>
      <point x="553" y="634"/>
      <point x="592" y="671"/>
      <point x="592" y="718" type="curve" smooth="yes"/>
      <point x="592" y="785"/>
      <point x="553" y="813"/>
      <point x="492" y="813" type="curve" smooth="yes"/>
      <point x="428" y="813"/>
      <point x="364" y="749"/>
    </contour>
    <component base="tml_Ma"/>
  </outline>
</glyph>
<glyph name="visarga" format="1">
  <advance width="388"/>
  <unicode hex="0D83"/>
  <outline>
    <contour>
      <point x="232.612" y="-7.4502" type="curve" smooth="yes"/>
      <point x="218.916" y="-7.4502" type="line"/>
      <point x="218.916" y="32.5498" type="line"/>
      <point x="339.905" y="32.5498"/>
      <point x="339.588" y="222.95"/>
      <point x="218.916" y="222.95" type="curve"/>
      <point x="218.916" y="262.95" type="line"/>
      <point x="232.612" y="262.95" type="line" smooth="yes"/>
      <point x="395.758" y="262.95"/>
      <point x="395.997" y="-7.4502"/>
    </contour>
    <contour>
      <point x="155.388" y="-7.4502" type="curve" smooth="yes"/>
      <point x="169.084" y="-7.4502" type="line"/>
      <point x="169.084" y="32.5498" type="line"/>
      <point x="48.0947" y="32.5498"/>
      <point x="48.4121" y="222.95"/>
      <point x="169.084" y="222.95" type="curve"/>
      <point x="169.084" y="262.95" type="line"/>
      <point x="155.388" y="262.95" type="line" smooth="yes"/>
      <point x="-7.75781" y="262.95"/>
      <point x="-7.99707" y="-7.4502"/>
    </contour>
    <contour>
      <point x="232.612" y="297.55" type="curve" smooth="yes"/>
      <point x="218.916" y="297.55" type="line"/>
      <point x="218.916" y="337.55" type="line"/>
      <point x="339.905" y="337.55"/>
      <point x="339.588" y="527.95"/>
      <point x="218.916" y="527.95" type="curve"/>
      <point x="218.916" y="567.95" type="line"/>
      <point x="232.612" y="567.95" type="line" smooth="yes"/>
      <point x="395.758" y="567.95"/>
      <point x="395.997" y="297.55"/>
    </contour>
    <contour>
      <point x="155.388" y="297.55" type="curve" smooth="yes"/>
      <point x="169.084" y="297.55" type="line"/>
      <point x="169.084" y="337.55" type="line"/>
      <point x="48.0947" y="337.55"/>
      <point x="48.4121" y="527.95"/>
      <point x="169.084" y="527.95" type="curve"/>
      <point x="169.084" y="567.95" type="line"/>
      <point x="155.388" y="567.95" type="line" smooth="yes"/>
      <point x="-7.7583" y="567.95"/>
      <point x="-7.99688" y="297.55"/>
    </contour>
  </outline>
</glyph>
<glyph name="si_vocalicR" format="1">
  <advance width="964"/>
  <unicode hex="0D8D"/>
  <outline>
    <contour>
      <point x="146" y="402" type="line"/>
      <point x="35.2051" y="402"/>
      <point x="30" y="336.857"/>
      <point x="30" y="288" type="curve" smooth="yes"/>
      <point x="30" y="241" type="line"/>
      <point x="70" y="241" type="line"/>
      <point x="70" y="288" type="line" smooth="yes"/>
      <point x="70" y="354.575"/>
      <point x="108.631" y="362"/>
      <point x="145" y="362" type="curve"/>
      <point x="485" y="362" type="line"/>
      <point x="521.369" y="362"/>
      <point x="560" y="354.575"/>
      <point x="560" y="288" type="curve" smooth="yes"/>
      <point x="560" y="241" type="line"/>
      <point x="600" y="241" type="line"/>
      <point x="600" y="288" type="line" smooth="yes"/>
      <point x="600" y="336.857"/>
      <point x="594.795" y="402"/>
      <point x="484" y="402" type="curve"/>
    </contour>
    <contour>
      <point x="295" y="379" type="line"/>
      <point x="335" y="379" type="line"/>
      <point x="335" y="415" type="line"/>
      <point x="335" y="469"/>
      <point x="365.793" y="524"/>
      <point x="444" y="524" type="curve" smooth="yes"/>
      <point x="506.579" y="524"/>
      <point x="541.527" y="500.315"/>
      <point x="555" y="464" type="curve"/>
      <point x="594" y="477" type="line"/>
      <point x="568.293" y="541.871"/>
      <point x="507.881" y="564"/>
      <point x="444" y="564" type="curve" smooth="yes"/>
      <point x="393.022" y="564"/>
      <point x="295.001" y="539.449"/>
      <point x="295.049" y="415" type="curve"/>
    </contour>
    <contour>
      <point x="36" y="477" type="curve"/>
      <point x="75" y="464" type="line"/>
      <point x="88.4727" y="500.315"/>
      <point x="123.421" y="524"/>
      <point x="186" y="524" type="curve" smooth="yes"/>
      <point x="264.207" y="524"/>
      <point x="295" y="469"/>
      <point x="295" y="415" type="curve"/>
      <point x="295" y="379" type="line"/>
      <point x="335" y="379" type="line"/>
      <point x="334.951" y="415" type="line"/>
      <point x="334.999" y="539.449"/>
      <point x="236.978" y="564"/>
      <point x="186" y="564" type="curve" smooth="yes"/>
      <point x="122.119" y="564"/>
      <point x="61.707" y="541.871"/>
    </contour>
    <contour>
      <point x="295" y="140" type="line" smooth="yes"/>
      <point x="295" y="55.5283"/>
      <point x="362.673" y="0"/>
      <point x="448" y="0" type="curve" smooth="yes"/>
      <point x="532.327" y="0"/>
      <point x="600" y="55.5283"/>
      <point x="600" y="140" type="curve" smooth="yes"/>
      <point x="600" y="192" type="line"/>
      <point x="560" y="192" type="line"/>
      <point x="560" y="141" type="line" smooth="yes"/>
      <point x="560" y="74.3125"/>
      <point x="511.263" y="40"/>
      <point x="448" y="40" type="curve" smooth="yes"/>
      <point x="383.737" y="40"/>
      <point x="335" y="74.3125"/>
      <point x="335" y="141" type="curve" smooth="yes"/>
      <point x="335" y="192" type="line"/>
      <point x="295" y="192" type="line"/>
    </contour>
    <contour>
      <point x="30" y="140" type="line" smooth="yes"/>
      <point x="30" y="55.5283"/>
      <point x="97.6729" y="0"/>
      <point x="182" y="0" type="curve" smooth="yes"/>
      <point x="267.327" y="0"/>
      <point x="335" y="55.5283"/>
      <point x="335" y="140" type="curve" smooth="yes"/>
      <point x="335" y="192" type="line"/>
      <point x="295" y="192" type="line"/>
      <point x="295" y="141" type="line" smooth="yes"/>
      <point x="295" y="74.3125"/>
      <point x="246.263" y="40"/>
      <point x="182" y="40" type="curve" smooth="yes"/>
      <point x="118.737" y="40"/>
      <point x="70" y="74.3125"/>
      <point x="70" y="141" type="curve" smooth="yes"/>
      <point x="70" y="192" type="line"/>
      <point x="30" y="192" type="line"/>
    </contour>
    <component base="si_MatraR" xOffset="651"/>
  </outline>
</glyph>
<glyph name="si_Ka" format="1">
  <advance width="760"/>
  <unicode hex="0D9A"/>
  <outline>
    <contour>
      <point x="33" y="452" type="line"/>
      <point x="98" y="622"/>
      <point x="291" y="576"/>
      <point x="320" y="473" type="curve"/>
      <point x="289" y="445" type="line"/>
      <point x="265" y="531"/>
      <point x="121" y="563"/>
      <point x="72" y="440" type="curve"/>
    </contour>
    <contour>
      <point x="30" y="196" type="curve"/>
      <point x="30" y="246" type="line"/>
      <point x="100" y="237"/>
      <point x="105.981" y="184.713"/>
      <point x="106" y="166" type="curve"/>
      <point x="106" y="114" type="line" smooth="yes"/>
      <point x="106" y="19.873"/>
      <point x="256" y="4.50586"/>
      <point x="256" y="114" type="curve" smooth="yes"/>
      <point x="256" y="192" type="line"/>
      <point x="295.88" y="192" type="line"/>
      <point x="296" y="114" type="line" smooth="yes"/>
      <point x="296.168" y="4.61133"/>
      <point x="462.997" y="19.79"/>
      <point x="463" y="114" type="curve" smooth="yes"/>
      <point x="463.004" y="240" type="line" smooth="yes"/>
      <point x="463.004" y="331.199"/>
      <point x="426" y="355"/>
      <point x="326.776" y="369.904" type="curve"/>
      <point x="365" y="403" type="line"/>
      <point x="441" y="391"/>
      <point x="503" y="361.827"/>
      <point x="503" y="240" type="curve" smooth="yes"/>
      <point x="503" y="114" type="line" smooth="yes"/>
      <point x="503" y="-11.1279"/>
      <point x="357.3" y="-35.5664"/>
      <point x="276" y="36" type="curve"/>
      <point x="203.39" y="-42.9121"/>
      <point x="65.0029" y="-2.125"/>
      <point x="65.0029" y="114" type="curve" smooth="yes"/>
      <point x="65.0488" y="146.19" type="line" smooth="yes"/>
      <point x="65.0488" y="167.92"/>
      <point x="63.5771" y="199"/>
      <point x="44" y="199" type="curve" smooth="yes"/>
      <point x="40.7168" y="199"/>
      <point x="34.2529" y="197.3"/>
    </contour>
    <contour>
      <point x="30" y="196" type="line"/>
      <point x="30" y="246" type="line"/>
      <point x="320" y="494" type="line"/>
      <point x="474.245" y="613.713"/>
      <point x="730" y="579.478"/>
      <point x="730" y="314" type="curve" smooth="yes"/>
      <point x="730" y="192" type="line" smooth="yes"/>
      <point x="729.58" y="65.7373"/>
      <point x="693.296" y="-1"/>
      <point x="554" y="-1" type="curve"/>
      <point x="554" y="39" type="line"/>
      <point x="616.112" y="39"/>
      <point x="690" y="47.959"/>
      <point x="690" y="192" type="curve" smooth="yes"/>
      <point x="690" y="314" type="line" smooth="yes"/>
      <point x="690" y="528.308"/>
      <point x="474.437" y="570.136"/>
      <point x="349" y="466" type="curve"/>
      <point x="69" y="225" type="line"/>
    </contour>
  </outline>
</glyph>
<glyph name="si_Ga" format="1">
  <advance width="703"/>
  <unicode hex="0D9C"/>
  <outline>
    <contour>
      <point x="633" y="216" type="line" smooth="yes"/>
      <point x="633" y="98.1426"/>
      <point x="579.112" y="32"/>
      <point x="487" y="32" type="curve"/>
      <point x="487" y="-8" type="line"/>
      <point x="606.296" y="-8"/>
      <point x="672.58" y="79.7373"/>
      <point x="672.921" y="216" type="curve" smooth="yes"/>
      <point x="672.921" y="340" type="line" smooth="yes"/>
      <point x="672.58" y="476.263"/>
      <point x="606.296" y="564"/>
      <point x="487" y="564" type="curve"/>
      <point x="487" y="524" type="line"/>
      <point x="582.112" y="524"/>
      <point x="633" y="457.857"/>
      <point x="633" y="340" type="curve" smooth="yes"/>
    </contour>
    <contour>
      <point x="70" y="216" type="line" smooth="yes"/>
      <point x="70" y="98.1426"/>
      <point x="123.888" y="32"/>
      <point x="216" y="32" type="curve"/>
      <point x="216" y="-8" type="line"/>
      <point x="96.7041" y="-8"/>
      <point x="30.4199" y="79.7373"/>
      <point x="30.0791" y="216" type="curve" smooth="yes"/>
      <point x="30.0791" y="340" type="line" smooth="yes"/>
      <point x="30.4199" y="476.263"/>
      <point x="96.7041" y="564"/>
      <point x="216" y="564" type="curve"/>
      <point x="216" y="524" type="line"/>
      <point x="120.888" y="524"/>
      <point x="70" y="457.857"/>
      <point x="70" y="340" type="curve" smooth="yes"/>
    </contour>
    <contour>
      <point x="269" y="271" type="line"/>
      <point x="306" y="271" type="line" smooth="yes"/>
      <point x="391.498" y="271"/>
      <point x="399.126" y="199.586"/>
      <point x="399.126" y="152.124" type="curve" smooth="yes"/>
      <point x="399.126" y="66.249"/>
      <point x="351.817" y="32"/>
      <point x="272" y="32" type="curve"/>
      <point x="272" y="-8" type="line"/>
      <point x="371.866" y="-8"/>
      <point x="439" y="42.873"/>
      <point x="439" y="145" type="curve" smooth="yes"/>
      <point x="439" y="164" type="line" smooth="yes"/>
      <point x="439" y="233"/>
      <point x="408.232" y="311"/>
      <point x="306" y="311" type="curve" smooth="yes"/>
      <point x="269" y="311" type="line"/>
    </contour>
    <contour>
      <point x="252" y="271" type="line" smooth="yes"/>
      <point x="293" y="271" type="line"/>
      <point x="293" y="361" type="line" smooth="yes"/>
      <point x="293" y="443"/>
      <point x="324.192" y="524"/>
      <point x="431" y="524" type="curve"/>
      <point x="431" y="564" type="line"/>
      <point x="309.062" y="564"/>
      <point x="252" y="478.007"/>
      <point x="252" y="360" type="curve" smooth="yes"/>
    </contour>
  </outline>
</glyph>
<glyph name="si_Jha" format="1">
  <advance width="1138"/>
  <unicode hex="0DA3"/>
  <outline>
    <contour>
      <point x="33" y="452" type="line"/>
      <point x="98" y="622"/>
      <point x="291" y="576"/>
      <point x="320" y="473" type="curve"/>
      <point x="289" y="445" type="line"/>
      <point x="265" y="531"/>
      <point x="121" y="563"/>
      <point x="72" y="440" type="curve"/>
    </contour>
    <contour>
      <point x="30" y="196" type="curve"/>
      <point x="30" y="246" type="line"/>
      <point x="100" y="237"/>
      <point x="105.981" y="184.713"/>
      <point x="106" y="166" type="curve"/>
      <point x="106" y="114" type="line" smooth="yes"/>
      <point x="106" y="19.873"/>
      <point x="256" y="4.50586"/>
      <point x="256" y="114" type="curve" smooth="yes"/>
      <point x="256" y="192" type="line"/>
      <point x="295.88" y="192" type="line"/>
      <point x="296" y="114" type="line" smooth="yes"/>
      <point x="296.168" y="4.61133"/>
      <point x="462.997" y="19.79"/>
      <point x="463" y="114" type="curve" smooth="yes"/>
      <point x="463.004" y="240" type="line" smooth="yes"/>
      <point x="463.004" y="331.199"/>
      <point x="426" y="355"/>
      <point x="326.776" y="369.904" type="curve"/>
      <point x="365" y="403" type="line"/>
      <point x="441" y="391"/>
      <point x="503" y="361.827"/>
      <point x="503" y="240" type="curve" smooth="yes"/>
      <point x="503" y="114" type="line" smooth="yes"/>
      <point x="503" y="-11.1279"/>
      <point x="357.3" y="-35.5664"/>
      <point x="276" y="36" type="curve"/>
      <point x="203.39" y="-42.9121"/>
      <point x="65.0029" y="-2.125"/>
      <point x="65.0029" y="114" type="curve" smooth="yes"/>
      <point x="65.0488" y="146.19" type="line" smooth="yes"/>
      <point x="65.0488" y="167.92"/>
      <point x="63.5771" y="199"/>
      <point x="44" y="199" type="curve" smooth="yes"/>
      <point x="40.7168" y="199"/>
      <point x="34.2529" y="197.3"/>
    </contour>
    <contour>
      <point x="706" y="440" type="line"/>
      <point x="656" y="562"/>
      <point x="474.437" y="570.136"/>
      <point x="349" y="466" type="curve"/>
      <point x="69" y="225" type="line"/>
      <point x="30" y="196" type="line"/>
      <point x="30" y="246" type="line"/>
      <point x="320" y="494" type="line"/>
      <point x="474.245" y="613.713"/>
      <point x="691" y="612"/>
      <point x="753" y="440" type="curve"/>
    </contour>
    <contour>
      <point x="733.667" y="440" type="line"/>
      <point x="607.846" y="440"/>
      <point x="595" y="335.941"/>
      <point x="595" y="301" type="curve" smooth="yes"/>
      <point x="595" y="139" type="line" smooth="yes"/>
      <point x="595" y="104.059"/>
      <point x="617.846" y="40"/>
      <point x="694" y="40" type="curve" smooth="yes"/>
      <point x="769.154" y="40"/>
      <point x="792" y="104.059"/>
      <point x="792" y="139" type="curve" smooth="yes"/>
      <point x="792" y="192" type="line"/>
      <point x="834" y="192" type="line"/>
      <point x="834" y="133" type="line" smooth="yes"/>
      <point x="834" y="52.25"/>
      <point x="775.893" y="0"/>
      <point x="694" y="0" type="curve" smooth="yes"/>
      <point x="611.107" y="0"/>
      <point x="553" y="52.25"/>
      <point x="553" y="133" type="curve" smooth="yes"/>
      <point x="553" y="307" type="line" smooth="yes"/>
      <point x="553" y="387.75"/>
      <point x="601.107" y="480"/>
      <point x="723.667" y="480" type="curve"/>
      <point x="729" y="480" type="line"/>
      <point x="753" y="440" type="line"/>
    </contour>
    <contour>
      <point x="792" y="133" type="curve" smooth="yes"/>
      <point x="792" y="192" type="line"/>
      <point x="834" y="192" type="line"/>
      <point x="834" y="139" type="line" smooth="yes"/>
      <point x="834" y="104.059"/>
      <point x="856.846" y="40"/>
      <point x="932" y="40" type="curve" smooth="yes"/>
      <point x="1008.15" y="40"/>
      <point x="1031" y="104.059"/>
      <point x="1031" y="139" type="curve" smooth="yes"/>
      <point x="1031" y="242" type="line"/>
      <point x="1073" y="242" type="line"/>
      <point x="1073" y="133" type="line" smooth="yes"/>
      <point x="1073" y="52.25"/>
      <point x="1014.89" y="0"/>
      <point x="932" y="0" type="curve" smooth="yes"/>
      <point x="850.107" y="0"/>
      <point x="792" y="52.25"/>
    </contour>
    <contour>
      <point x="582.761" y="642.542" type="line"/>
      <point x="609.601" y="715.893"/>
      <point x="697.944" y="755"/>
      <point x="768" y="755" type="curve"/>
      <point x="780" y="755" type="line"/>
      <point x="780" y="715" type="line"/>
      <point x="768" y="715" type="line"/>
      <point x="710.018" y="715"/>
      <point x="640.265" y="683.627"/>
      <point x="622.103" y="628.235" type="curve"/>
    </contour>
    <contour>
      <point x="1073" y="241" type="line" smooth="yes"/>
      <point x="1031" y="241" type="line" smooth="yes"/>
      <point x="1031" y="514" type="line" smooth="yes"/>
      <point x="1031" y="661.715"/>
      <point x="961.056" y="715"/>
      <point x="848" y="715" type="curve"/>
      <point x="837" y="715" type="line"/>
      <point x="837" y="755" type="line"/>
      <point x="848" y="755" type="line"/>
      <point x="1007.37" y="755"/>
      <point x="1073" y="671.037"/>
      <point x="1073" y="514" type="curve" smooth="yes"/>
    </contour>
  </outline>
</glyph>
<glyph name="si_Nya" format="1">
  <advance width="1083"/>
  <unicode hex="0DA4"/>
  <outline>
    <contour>
      <point x="210" y="440" type="line"/>
      <point x="105" y="480"/>
      <point x="70" y="412"/>
      <point x="70" y="323" type="curve" smooth="yes"/>
      <point x="70" y="193" type="line" smooth="yes"/>
      <point x="70" y="112.436"/>
      <point x="71.5576" y="68.5967"/>
      <point x="136" y="-8" type="curve"/>
      <point x="94" y="-24" type="line"/>
      <point x="34.3584" y="53.1836"/>
      <point x="30" y="102.444"/>
      <point x="30" y="193" type="curve" smooth="yes"/>
      <point x="30" y="323" type="line" smooth="yes"/>
      <point x="30" y="488"/>
      <point x="129" y="508"/>
      <point x="210.051" y="483.245" type="curve" smooth="yes"/>
    </contour>
    <contour>
      <point x="1113" y="-76" type="curve"/>
      <point x="1074" y="-66" type="line"/>
      <point x="1057.55" y="-133.627"/>
      <point x="1001.85" y="-164.281"/>
      <point x="946.197" y="-164.281" type="curve" smooth="yes"/>
      <point x="880.061" y="-164.281"/>
      <point x="814" y="-120.984"/>
      <point x="814" y="-45" type="curve"/>
      <point x="774" y="-45" type="line"/>
      <point x="774" y="-151.098"/>
      <point x="857.453" y="-203.964"/>
      <point x="942.022" y="-203.964" type="curve" smooth="yes"/>
      <point x="1018.06" y="-203.964"/>
      <point x="1095.01" y="-161.222"/>
    </contour>
    <contour>
      <point x="754" y="592" type="line" smooth="yes"/>
      <point x="852.31" y="592"/>
      <point x="1013" y="558.503"/>
      <point x="1013" y="389" type="curve" smooth="yes"/>
      <point x="1013" y="362" type="line"/>
      <point x="827" y="362" type="line" smooth="yes"/>
      <point x="711.019" y="362"/>
      <point x="652.624" y="293.457"/>
      <point x="652.624" y="199" type="curve" smooth="yes"/>
      <point x="652.624" y="108.484"/>
      <point x="714.124" y="40"/>
      <point x="838" y="40" type="curve"/>
      <point x="877" y="40" type="line"/>
      <point x="948" y="40"/>
      <point x="1008" y="74.5439"/>
      <point x="1042" y="148" type="curve"/>
      <point x="1079" y="138" type="line"/>
      <point x="1037.01" y="22.3047"/>
      <point x="934" y="0"/>
      <point x="877" y="0" type="curve"/>
      <point x="838" y="0" type="line" smooth="yes"/>
      <point x="718" y="0"/>
      <point x="611" y="60.3916"/>
      <point x="611" y="199" type="curve" smooth="yes"/>
      <point x="611" y="335.29"/>
      <point x="706.045" y="402"/>
      <point x="837" y="402" type="curve" smooth="yes"/>
      <point x="973" y="402" type="line"/>
      <point x="973" y="533.372"/>
      <point x="831.581" y="550.201"/>
      <point x="753.94" y="550.201" type="curve" smooth="yes"/>
    </contour>
    <contour>
      <point x="171" y="452" type="line"/>
      <point x="236" y="622"/>
      <point x="429" y="576"/>
      <point x="458" y="473" type="curve"/>
      <point x="427" y="445" type="line"/>
      <point x="403" y="531"/>
      <point x="259" y="563"/>
      <point x="210" y="440" type="curve"/>
    </contour>
    <contour>
      <point x="168" y="196" type="curve"/>
      <point x="168" y="246" type="line"/>
      <point x="238" y="237"/>
      <point x="243.981" y="184.713"/>
      <point x="244" y="166" type="curve"/>
      <point x="244" y="114" type="line" smooth="yes"/>
      <point x="244" y="19.873"/>
      <point x="394" y="4.50586"/>
      <point x="394" y="114" type="curve" smooth="yes"/>
      <point x="394" y="192" type="line"/>
      <point x="433.88" y="192" type="line"/>
      <point x="434" y="114" type="line" smooth="yes"/>
      <point x="434.168" y="4.61133"/>
      <point x="600.997" y="19.79"/>
      <point x="601" y="114" type="curve" smooth="yes"/>
      <point x="601.004" y="240" type="line" smooth="yes"/>
      <point x="601.004" y="331.199"/>
      <point x="564" y="355"/>
      <point x="464.776" y="369.904" type="curve"/>
      <point x="503" y="403" type="line"/>
      <point x="579" y="391"/>
      <point x="641" y="361.827"/>
      <point x="641" y="240" type="curve" smooth="yes"/>
      <point x="641" y="114" type="line" smooth="yes"/>
      <point x="641" y="-11.1279"/>
      <point x="495.3" y="-35.5664"/>
      <point x="414" y="36" type="curve"/>
      <point x="341.39" y="-42.9121"/>
      <point x="203.003" y="-2.125"/>
      <point x="203.003" y="114" type="curve" smooth="yes"/>
      <point x="203.049" y="146.19" type="line" smooth="yes"/>
      <point x="203.049" y="167.92"/>
      <point x="201.577" y="199"/>
      <point x="182" y="199" type="curve" smooth="yes"/>
      <point x="178.717" y="199"/>
      <point x="172.253" y="197.3"/>
    </contour>
    <contour>
      <point x="698.94" y="550.201" type="line"/>
      <point x="633" y="550"/>
      <point x="558" y="525"/>
      <point x="487" y="466" type="curve"/>
      <point x="207" y="225" type="line"/>
      <point x="168" y="196" type="line"/>
      <point x="168" y="246" type="line"/>
      <point x="458" y="494" type="line"/>
      <point x="548" y="564"/>
      <point x="632" y="592"/>
      <point x="699" y="592" type="curve"/>
    </contour>
  </outline>
</glyph>
<glyph name="si_Tta" format="1">
  <advance width="551"/>
  <unicode hex="0DA7"/>
  <outline>
    <contour>
      <point x="30.375" y="563" type="line"/>
      <point x="30.375" y="673.921"/>
      <point x="143.923" y="755"/>
      <point x="240" y="755" type="curve"/>
      <point x="240" y="715" type="line"/>
      <point x="155.506" y="715"/>
      <point x="69.375" y="644.132"/>
      <point x="69.375" y="553" type="curve"/>
    </contour>
    <contour>
      <point x="296" y="0" type="line"/>
      <point x="455.37" y="0"/>
      <point x="521" y="83.9629"/>
      <point x="521" y="241" type="curve" smooth="yes"/>
      <point x="521" y="514" type="line" smooth="yes"/>
      <point x="521" y="671.037"/>
      <point x="455.37" y="755"/>
      <point x="296" y="755" type="curve"/>
      <point x="296" y="715" type="line"/>
      <point x="409.056" y="715"/>
      <point x="480" y="661.715"/>
      <point x="480" y="514" type="curve" smooth="yes"/>
      <point x="480" y="241" type="line" smooth="yes"/>
      <point x="480" y="95.2852"/>
      <point x="409.056" y="40"/>
      <point x="296" y="40" type="curve"/>
    </contour>
    <contour>
      <point x="36.999" y="270" type="line" smooth="yes"/>
      <point x="36.999" y="354.561"/>
      <point x="79.6602" y="470"/>
      <point x="239.625" y="470" type="curve"/>
      <point x="239.625" y="429.931" type="line"/>
      <point x="127.966" y="429.996"/>
      <point x="78" y="357.23"/>
      <point x="78" y="270" type="curve" smooth="yes"/>
      <point x="78" y="200" type="line" smooth="yes"/>
      <point x="78" y="112"/>
      <point x="138.89" y="40.0039"/>
      <point x="239.625" y="40.0693" type="curve"/>
      <point x="239.625" y="0" type="line"/>
      <point x="90.3838" y="0"/>
      <point x="37" y="116"/>
      <point x="37" y="200" type="curve" smooth="yes"/>
    </contour>
  </outline>
</glyph>
<glyph name="si_Ttha" format="1">
  <advance width="593"/>
  <unicode hex="0DA8"/>
  <outline>
    <contour>
      <point x="223.667" y="440" type="line"/>
      <point x="97.8457" y="440"/>
      <point x="85" y="335.941"/>
      <point x="85" y="301" type="curve" smooth="yes"/>
      <point x="85" y="139" type="line" smooth="yes"/>
      <point x="85" y="104.059"/>
      <point x="107.846" y="40"/>
      <point x="184" y="40" type="curve" smooth="yes"/>
      <point x="259.154" y="40"/>
      <point x="282" y="104.059"/>
      <point x="282" y="139" type="curve" smooth="yes"/>
      <point x="282" y="192" type="line"/>
      <point x="324" y="192" type="line"/>
      <point x="324" y="133" type="line" smooth="yes"/>
      <point x="324" y="52.25"/>
      <point x="265.893" y="0"/>
      <point x="184" y="0" type="curve" smooth="yes"/>
      <point x="101.107" y="0"/>
      <point x="43" y="52.25"/>
      <point x="43" y="133" type="curve" smooth="yes"/>
      <point x="43" y="307" type="line" smooth="yes"/>
      <point x="43" y="387.75"/>
      <point x="91.1074" y="480"/>
      <point x="223.667" y="480" type="curve"/>
      <point x="263" y="480" type="line"/>
      <point x="263" y="440" type="line"/>
    </contour>
    <contour>
      <point x="282" y="133" type="curve" smooth="yes"/>
      <point x="282" y="192" type="line"/>
      <point x="324" y="192" type="line"/>
      <point x="324" y="139" type="line" smooth="yes"/>
      <point x="324" y="104.059"/>
      <point x="346.846" y="40"/>
      <point x="422" y="40" type="curve" smooth="yes"/>
      <point x="498.154" y="40"/>
      <point x="521" y="104.059"/>
      <point x="521" y="139" type="curve" smooth="yes"/>
      <point x="521" y="242" type="line"/>
      <point x="563" y="242" type="line"/>
      <point x="563" y="133" type="line" smooth="yes"/>
      <point x="563" y="52.25"/>
      <point x="504.893" y="0"/>
      <point x="422" y="0" type="curve" smooth="yes"/>
      <point x="340.107" y="0"/>
      <point x="282" y="52.25"/>
    </contour>
    <contour>
      <point x="296" y="637" type="curve" smooth="yes"/>
      <point x="296" y="755" type="line"/>
      <point x="336" y="755" type="line"/>
      <point x="465.702" y="755"/>
      <point x="563" y="700"/>
      <point x="563" y="517" type="curve" smooth="yes"/>
      <point x="563" y="235" type="line"/>
      <point x="521" y="235" type="line"/>
      <point x="521" y="498" type="line" smooth="yes"/>
      <point x="521" y="643.279"/>
      <point x="473.385" y="715"/>
      <point x="336" y="715" type="curve"/>
      <point x="335.95" y="637" type="line" smooth="yes"/>
      <point x="336" y="536.674"/>
      <point x="403.352" y="504"/>
      <point x="466" y="504" type="curve"/>
      <point x="466" y="464" type="line"/>
      <point x="349" y="464"/>
      <point x="296" y="540.655"/>
    </contour>
  </outline>
</glyph>
<glyph name="si_Dda" format="1">
  <advance width="632"/>
  <unicode hex="0DA9"/>
  <outline>
    <contour>
      <point x="79.375" y="563" type="line"/>
      <point x="79.375" y="673.921"/>
      <point x="192.923" y="755"/>
      <point x="289" y="755" type="curve"/>
      <point x="301" y="755" type="line"/>
      <point x="301" y="715" type="line"/>
      <point x="289" y="715" type="line"/>
      <point x="204.506" y="715"/>
      <point x="118.375" y="644.132"/>
      <point x="118.375" y="553" type="curve"/>
    </contour>
    <contour>
      <point x="594" y="241" type="line" smooth="yes"/>
      <point x="552" y="241" type="line" smooth="yes"/>
      <point x="552" y="514" type="line" smooth="yes"/>
      <point x="552" y="661.715"/>
      <point x="482.056" y="715"/>
      <point x="369" y="715" type="curve"/>
      <point x="358" y="715" type="line"/>
      <point x="358" y="755" type="line"/>
      <point x="369" y="755" type="line"/>
      <point x="528.37" y="755"/>
      <point x="594" y="671.037"/>
      <point x="594" y="514" type="curve" smooth="yes"/>
    </contour>
    <contour>
      <point x="30" y="349" type="line"/>
      <point x="315" y="349" type="line"/>
      <point x="314.506" y="450.283"/>
      <point x="169.243" y="467.491"/>
      <point x="136" y="389" type="curve"/>
      <point x="97" y="399" type="line"/>
      <point x="127.677" y="516.998"/>
      <point x="355.062" y="506.469"/>
      <point x="354.932" y="354" type="curve" smooth="yes"/>
      <point x="355" y="309" type="line"/>
      <point x="306" y="309" type="line" smooth="yes"/>
      <point x="191" y="309" type="line"/>
      <point x="154.631" y="309"/>
      <point x="116" y="301.575"/>
      <point x="116" y="235" type="curve" smooth="yes"/>
      <point x="116" y="139" type="line" smooth="yes"/>
      <point x="116" y="104.059"/>
      <point x="138.846" y="40"/>
      <point x="215" y="40" type="curve" smooth="yes"/>
      <point x="290.154" y="40"/>
      <point x="313" y="104.059"/>
      <point x="313" y="139" type="curve" smooth="yes"/>
      <point x="313" y="192" type="line"/>
      <point x="355" y="192" type="line"/>
      <point x="355" y="133" type="line" smooth="yes"/>
      <point x="355" y="52.25"/>
      <point x="296.893" y="0"/>
      <point x="215" y="0" type="curve" smooth="yes"/>
      <point x="132.107" y="0"/>
      <point x="74" y="52.25"/>
      <point x="74" y="133" type="curve" smooth="yes"/>
      <point x="74" y="235" type="line" smooth="yes"/>
      <point x="74" y="266.714"/>
      <point x="80.8193" y="297.654"/>
      <point x="102" y="309" type="curve"/>
      <point x="30.0254" y="309" type="line"/>
    </contour>
    <contour>
      <point x="594" y="282" type="line"/>
      <point x="594" y="133" type="line" smooth="yes"/>
      <point x="594" y="52.25"/>
      <point x="535.893" y="0"/>
      <point x="453" y="0" type="curve" smooth="yes"/>
      <point x="371.107" y="0"/>
      <point x="313" y="52.25"/>
      <point x="313" y="133" type="curve" smooth="yes"/>
      <point x="313" y="192" type="line"/>
      <point x="355" y="192" type="line"/>
      <point x="355" y="139" type="line" smooth="yes"/>
      <point x="355" y="104.059"/>
      <point x="377.846" y="40"/>
      <point x="453" y="40" type="curve" smooth="yes"/>
      <point x="529.154" y="40"/>
      <point x="552" y="104.059"/>
      <point x="552" y="139" type="curve" smooth="yes"/>
      <point x="552" y="282" type="line"/>
    </contour>
  </outline>
</glyph>
<glyph name="si_Ddha" format="1">
  <advance width="624"/>
  <unicode hex="0DAA"/>
  <outline>
    <contour>
      <point x="30" y="349" type="line"/>
      <point x="315" y="349" type="line"/>
      <point x="314.506" y="450.283"/>
      <point x="169.243" y="467.491"/>
      <point x="136" y="389" type="curve"/>
      <point x="97" y="399" type="line"/>
      <point x="127.677" y="516.998"/>
      <point x="355.062" y="506.469"/>
      <point x="354.932" y="354" type="curve" smooth="yes"/>
      <point x="355" y="309" type="line"/>
      <point x="306" y="309" type="line" smooth="yes"/>
      <point x="191" y="309" type="line"/>
      <point x="154.631" y="309"/>
      <point x="116" y="301.575"/>
      <point x="116" y="235" type="curve" smooth="yes"/>
      <point x="116" y="139" type="line" smooth="yes"/>
      <point x="116" y="104.059"/>
      <point x="138.846" y="40"/>
      <point x="215" y="40" type="curve" smooth="yes"/>
      <point x="290.154" y="40"/>
      <point x="313" y="104.059"/>
      <point x="313" y="139" type="curve" smooth="yes"/>
      <point x="313" y="192" type="line"/>
      <point x="355" y="192" type="line"/>
      <point x="355" y="133" type="line" smooth="yes"/>
      <point x="355" y="52.25"/>
      <point x="296.893" y="0"/>
      <point x="215" y="0" type="curve" smooth="yes"/>
      <point x="132.107" y="0"/>
      <point x="74" y="52.25"/>
      <point x="74" y="133" type="curve" smooth="yes"/>
      <point x="74" y="235" type="line" smooth="yes"/>
      <point x="74" y="266.714"/>
      <point x="80.8193" y="297.654"/>
      <point x="102" y="309" type="curve"/>
      <point x="30.0254" y="309" type="line"/>
    </contour>
    <contour>
      <point x="313" y="133" type="curve" smooth="yes"/>
      <point x="313" y="192" type="line"/>
      <point x="355" y="192" type="line"/>
      <point x="355" y="139" type="line" smooth="yes"/>
      <point x="355" y="104.059"/>
      <point x="377.846" y="40"/>
      <point x="453" y="40" type="curve" smooth="yes"/>
      <point x="529.154" y="40"/>
      <point x="552" y="104.059"/>
      <point x="552" y="139" type="curve" smooth="yes"/>
      <point x="552" y="242" type="line"/>
      <point x="594" y="242" type="line"/>
      <point x="594" y="133" type="line" smooth="yes"/>
      <point x="594" y="52.25"/>
      <point x="535.893" y="0"/>
      <point x="453" y="0" type="curve" smooth="yes"/>
      <point x="371.107" y="0"/>
      <point x="313" y="52.25"/>
    </contour>
    <contour>
      <point x="327" y="637" type="curve" smooth="yes"/>
      <point x="327" y="755" type="line"/>
      <point x="367" y="755" type="line"/>
      <point x="496.702" y="755"/>
      <point x="594" y="700"/>
      <point x="594" y="517" type="curve" smooth="yes"/>
      <point x="594" y="235" type="line"/>
      <point x="552" y="235" type="line"/>
      <point x="552" y="498" type="line" smooth="yes"/>
      <point x="552" y="643.279"/>
      <point x="504.385" y="715"/>
      <point x="367" y="715" type="curve"/>
      <point x="366.95" y="637" type="line" smooth="yes"/>
      <point x="367" y="536.674"/>
      <point x="434.352" y="504"/>
      <point x="497" y="504" type="curve"/>
      <point x="497" y="464" type="line"/>
      <point x="380" y="464"/>
      <point x="327" y="540.655"/>
    </contour>
  </outline>
</glyph>
<glyph name="si_Nna" format="1">
  <advance width="963"/>
  <unicode hex="0DAB"/>
  <outline>
    <contour>
      <point x="529.474" y="494.92" type="line"/>
      <point x="576.299" y="545.831"/>
      <point x="680" y="524.725"/>
      <point x="680" y="432" type="curve" smooth="yes"/>
      <point x="680" y="251" type="line"/>
      <point x="720" y="251" type="line"/>
      <point x="720" y="432" type="line" smooth="yes"/>
      <point x="720" y="562.588"/>
      <point x="581.765" y="596.83"/>
      <point x="509.655" y="534.323" type="curve"/>
    </contour>
    <contour>
      <point x="535" y="160" type="curve" smooth="yes"/>
      <point x="535" y="202" type="line"/>
      <point x="575" y="202" type="line"/>
      <point x="575" y="160" type="line" smooth="yes"/>
      <point x="575" y="-8.01074"/>
      <point x="893" y="-8.55176"/>
      <point x="893" y="160" type="curve" smooth="yes"/>
      <point x="893" y="202" type="line"/>
      <point x="933" y="202" type="line"/>
      <point x="933" y="160" type="line" smooth="yes"/>
      <point x="933" y="-62.4902"/>
      <point x="535" y="-61.7881"/>
    </contour>
    <contour>
      <point x="9.99902" y="5" type="line"/>
      <point x="48" y="82"/>
      <point x="110.746" y="84.625"/>
      <point x="140.294" y="84.625" type="curve" smooth="yes"/>
      <point x="218.58" y="84.625"/>
      <point x="256.148" y="40.6621"/>
      <point x="317.312" y="40.6621" type="curve" smooth="yes"/>
      <point x="359.779" y="40.6621"/>
      <point x="439" y="71.5"/>
      <point x="439" y="176" type="curve" smooth="yes"/>
      <point x="439" y="383" type="line" smooth="yes"/>
      <point x="439" y="511.834"/>
      <point x="363.322" y="566"/>
      <point x="268" y="566" type="curve" smooth="yes"/>
      <point x="114.17" y="566"/>
      <point x="96" y="434.254"/>
      <point x="96" y="398" type="curve" smooth="yes"/>
      <point x="96" y="365.455"/>
      <point x="105.839" y="242"/>
      <point x="257" y="242" type="curve" smooth="yes"/>
      <point x="277.513" y="242"/>
      <point x="287" y="242"/>
      <point x="303" y="242" type="curve"/>
      <point x="303" y="202" type="line"/>
      <point x="293" y="202"/>
      <point x="262.156" y="201.959"/>
      <point x="236.25" y="201.959" type="curve" smooth="yes"/>
      <point x="139.378" y="201.959"/>
      <point x="56" y="275.274"/>
      <point x="56" y="398" type="curve" smooth="yes"/>
      <point x="56" y="535"/>
      <point x="158" y="606"/>
      <point x="268" y="606" type="curve" smooth="yes"/>
      <point x="478.698" y="606"/>
      <point x="480.075" y="430.731"/>
      <point x="480.075" y="383" type="curve" smooth="yes"/>
      <point x="480.075" y="368.861"/>
      <point x="480" y="194.315"/>
      <point x="480" y="176" type="curve" smooth="yes"/>
      <point x="480" y="38.7334"/>
      <point x="374.319" y="0.199219"/>
      <point x="318.145" y="0.199219" type="curve" smooth="yes"/>
      <point x="246.229" y="0.199219"/>
      <point x="205.196" y="43.3574"/>
      <point x="140.294" y="43.3574" type="curve" smooth="yes"/>
      <point x="104.717" y="43.3574"/>
      <point x="66" y="34"/>
      <point x="49" y="-5" type="curve"/>
    </contour>
    <contour>
      <point x="362.277" y="581" type="line"/>
      <point x="515.999" y="784" type="line"/>
      <point x="562" y="772" type="line"/>
      <point x="390.999" y="546" type="line"/>
    </contour>
    <contour>
      <point x="680" y="432" type="curve"/>
      <point x="680" y="251" type="line"/>
      <point x="720" y="251" type="line"/>
      <point x="720" y="432" type="line" smooth="yes"/>
      <point x="720" y="552.05"/>
      <point x="893" y="551.765"/>
      <point x="893" y="432" type="curve" smooth="yes"/>
      <point x="893" y="251" type="line"/>
      <point x="933" y="251" type="line"/>
      <point x="933" y="432" type="line" smooth="yes"/>
      <point x="933" y="608.666"/>
      <point x="680" y="609"/>
    </contour>
  </outline>
</glyph>
<glyph name="si_Ta" format="1">
  <advance width="760"/>
  <unicode hex="0DAD"/>
  <outline>
    <contour>
      <point x="30" y="196" type="line"/>
      <point x="30" y="246" type="line"/>
      <point x="320" y="494" type="line"/>
      <point x="474.245" y="613.713"/>
      <point x="730" y="579.478"/>
      <point x="730" y="314" type="curve" smooth="yes"/>
      <point x="730" y="192" type="line" smooth="yes"/>
      <point x="729.58" y="65.7373"/>
      <point x="693.296" y="-1"/>
      <point x="554" y="-1" type="curve"/>
      <point x="554" y="39" type="line"/>
      <point x="616.112" y="39"/>
      <point x="690" y="47.959"/>
      <point x="690" y="192" type="curve" smooth="yes"/>
      <point x="690" y="314" type="line" smooth="yes"/>
      <point x="690" y="528.308"/>
      <point x="474.437" y="570.136"/>
      <point x="349" y="466" type="curve"/>
      <point x="69" y="225" type="line"/>
    </contour>
    <contour>
      <point x="65" y="452" type="line"/>
      <point x="130" y="622"/>
      <point x="323" y="576"/>
      <point x="352" y="473" type="curve"/>
      <point x="321" y="445" type="line"/>
      <point x="297" y="531"/>
      <point x="153" y="563"/>
      <point x="104" y="440" type="curve"/>
    </contour>
    <contour>
      <point x="30" y="196" type="curve"/>
      <point x="49.7656" y="234.221" type="line"/>
      <point x="53.7686" y="234.969"/>
      <point x="57.6396" y="235.327"/>
      <point x="61.3896" y="235.327" type="curve" smooth="yes"/>
      <point x="148.853" y="235.327"/>
      <point x="160.451" y="36.1543"/>
      <point x="314" y="36.1543" type="curve" smooth="yes"/>
      <point x="499.83" y="36.1543"/>
      <point x="533.001" y="320"/>
      <point x="298.777" y="348.904" type="curve"/>
      <point x="336" y="381" type="line"/>
      <point x="583" y="334.2"/>
      <point x="554.003" y="-4.34473"/>
      <point x="314" y="-4.34473" type="curve" smooth="yes"/>
      <point x="132.818" y="-4.34473"/>
      <point x="116.524" y="197.86"/>
      <point x="42.5547" y="197.86" type="curve" smooth="yes"/>
      <point x="38.4893" y="197.86"/>
      <point x="34.3115" y="197.262"/>
    </contour>
  </outline>
</glyph>
<glyph name="si_Nda" format="1">
  <advance width="672"/>
  <unicode hex="0DB3"/>
  <outline>
    <contour>
      <point x="238" y="446" type="line"/>
      <point x="123" y="485"/>
      <point x="70" y="386"/>
      <point x="70" y="297" type="curve" smooth="yes"/>
      <point x="70" y="209" type="line" smooth="yes"/>
      <point x="70" y="128.436"/>
      <point x="71.5576" y="84.5967"/>
      <point x="136" y="8" type="curve"/>
      <point x="94" y="-8" type="line"/>
      <point x="34.3584" y="69.1836"/>
      <point x="30" y="118.444"/>
      <point x="30" y="209" type="curve" smooth="yes"/>
      <point x="30" y="297" type="line" smooth="yes"/>
      <point x="30" y="462"/>
      <point x="146" y="520"/>
      <point x="238.051" y="489.245" type="curve" smooth="yes"/>
    </contour>
    <component base="si_Da" xOffset="140"/>
  </outline>
</glyph>
<glyph name="si_Pha" format="1">
  <advance width="548"/>
  <unicode hex="0DB5"/>
  <outline>
    <contour>
      <point x="310.932" y="354" type="curve" smooth="yes"/>
      <point x="311" y="309" type="line"/>
      <point x="262" y="309" type="line" smooth="yes"/>
      <point x="124.373" y="309"/>
      <point x="70" y="285.762"/>
      <point x="70" y="181" type="curve" smooth="yes"/>
      <point x="70" y="111.89"/>
      <point x="129.708" y="40"/>
      <point x="237" y="40" type="curve"/>
      <point x="237" y="0" type="line"/>
      <point x="117.896" y="0"/>
      <point x="30" y="85.7334"/>
      <point x="30" y="181" type="curve" smooth="yes"/>
      <point x="30" y="230.761"/>
      <point x="41.2471" y="268.244"/>
      <point x="67" y="296" type="curve" smooth="yes"/>
      <point x="109.613" y="341.929"/>
      <point x="176.439" y="349"/>
      <point x="271" y="349" type="curve"/>
      <point x="270.506" y="450.283"/>
      <point x="125.243" y="467.491"/>
      <point x="92" y="389" type="curve"/>
      <point x="53" y="399" type="line"/>
      <point x="83.6768" y="516.998"/>
      <point x="311" y="506"/>
    </contour>
    <contour>
      <point x="476" y="241" type="curve" smooth="yes"/>
      <point x="518" y="241" type="line" smooth="yes"/>
      <point x="518" y="83.9629"/>
      <point x="452.37" y="0"/>
      <point x="293" y="0" type="curve"/>
      <point x="293" y="40" type="line"/>
      <point x="406.056" y="40"/>
      <point x="476" y="95.2852"/>
    </contour>
    <contour>
      <point x="251" y="637" type="curve" smooth="yes"/>
      <point x="251" y="755" type="line"/>
      <point x="291" y="755" type="line"/>
      <point x="420.702" y="755"/>
      <point x="518" y="700"/>
      <point x="518" y="517" type="curve" smooth="yes"/>
      <point x="518" y="235" type="line"/>
      <point x="476" y="235" type="line"/>
      <point x="476" y="498" type="line" smooth="yes"/>
      <point x="476" y="643.279"/>
      <point x="428.385" y="715"/>
      <point x="291" y="715" type="curve"/>
      <point x="290.95" y="637" type="line" smooth="yes"/>
      <point x="291" y="536.674"/>
      <point x="358.352" y="504"/>
      <point x="421" y="504" type="curve"/>
      <point x="421" y="464" type="line"/>
      <point x="304" y="464"/>
      <point x="251" y="540.655"/>
    </contour>
  </outline>
</glyph>
<glyph name="si_Ssa" format="1">
  <advance width="620"/>
  <unicode hex="0DC2"/>
  <outline>
    <contour>
      <point x="322" y="168" type="curve"/>
      <point x="282" y="168" type="line"/>
      <point x="282" y="257.976"/>
      <point x="340" y="337"/>
      <point x="444" y="367" type="curve"/>
      <point x="510" y="367" type="line"/>
      <point x="402" y="318"/>
      <point x="322" y="276.977"/>
    </contour>
    <contour>
      <point x="290" y="379" type="line"/>
      <point x="330" y="379" type="line"/>
      <point x="330" y="415" type="line"/>
      <point x="330" y="469"/>
      <point x="360.793" y="524"/>
      <point x="439" y="524" type="curve" smooth="yes"/>
      <point x="501.579" y="524"/>
      <point x="536.527" y="500.315"/>
      <point x="550" y="464" type="curve"/>
      <point x="589" y="477" type="line"/>
      <point x="563.293" y="541.871"/>
      <point x="502.881" y="564"/>
      <point x="439" y="564" type="curve" smooth="yes"/>
      <point x="388.022" y="564"/>
      <point x="290.001" y="539.449"/>
      <point x="290.049" y="415" type="curve"/>
    </contour>
    <contour>
      <point x="31" y="477" type="curve"/>
      <point x="70" y="464" type="line"/>
      <point x="83.4727" y="500.315"/>
      <point x="118.421" y="524"/>
      <point x="181" y="524" type="curve" smooth="yes"/>
      <point x="259.207" y="524"/>
      <point x="290" y="469"/>
      <point x="290" y="415" type="curve"/>
      <point x="290" y="379" type="line"/>
      <point x="330" y="379" type="line"/>
      <point x="329.951" y="415" type="line"/>
      <point x="329.999" y="539.449"/>
      <point x="231.978" y="564"/>
      <point x="181" y="564" type="curve" smooth="yes"/>
      <point x="117.119" y="564"/>
      <point x="56.707" y="541.871"/>
    </contour>
    <contour>
      <point x="341" y="-12" type="line" smooth="yes"/>
      <point x="518" y="-12"/>
      <point x="590" y="59.2461"/>
      <point x="590" y="202" type="curve"/>
      <point x="550" y="202" type="line"/>
      <point x="550" y="71.8008"/>
      <point x="474" y="28"/>
      <point x="341" y="28" type="curve" smooth="yes"/>
      <point x="279" y="28" type="line" smooth="yes"/>
      <point x="146" y="28"/>
      <point x="70" y="70.8008"/>
      <point x="70" y="202" type="curve"/>
      <point x="30" y="202" type="line"/>
      <point x="30" y="59.2461"/>
      <point x="102" y="-12"/>
      <point x="279" y="-12" type="curve" smooth="yes"/>
    </contour>
    <contour>
      <point x="30" y="251" type="line"/>
      <point x="30" y="373"/>
      <point x="97" y="402"/>
      <point x="194" y="402" type="curve" smooth="yes"/>
      <point x="419" y="402" type="line" smooth="yes"/>
      <point x="527" y="402"/>
      <point x="590" y="377"/>
      <point x="590" y="251" type="curve"/>
      <point x="550" y="251" type="line"/>
      <point x="550" y="329"/>
      <point x="530" y="362"/>
      <point x="421" y="362" type="curve" smooth="yes"/>
      <point x="195" y="362" type="line" smooth="yes"/>
      <point x="85.7383" y="362"/>
      <point x="70.001" y="317.104"/>
      <point x="70" y="251" type="curve"/>
    </contour>
  </outline>
</glyph>
<glyph name="si_Ha" format="1">
  <advance width="703"/>
  <unicode hex="0DC4"/>
  <outline>
    <contour>
      <point x="210.025" y="394" type="line"/>
      <point x="295" y="394" type="line"/>
      <point x="294.932" y="439" type="line" smooth="yes"/>
      <point x="295.062" y="591.469"/>
      <point x="67.6768" y="601.998"/>
      <point x="37" y="484" type="curve"/>
      <point x="76" y="474" type="line"/>
      <point x="109.243" y="552.491"/>
      <point x="254.506" y="535.283"/>
      <point x="255" y="434" type="curve"/>
      <point x="210" y="434" type="line"/>
    </contour>
    <contour>
      <point x="633" y="216" type="line" smooth="yes"/>
      <point x="633" y="98.1426"/>
      <point x="579.112" y="32"/>
      <point x="487" y="32" type="curve"/>
      <point x="487" y="-8" type="line"/>
      <point x="606.296" y="-8"/>
      <point x="672.58" y="79.7373"/>
      <point x="672.921" y="216" type="curve" smooth="yes"/>
      <point x="672.921" y="340" type="line" smooth="yes"/>
      <point x="672.58" y="476.263"/>
      <point x="606.296" y="564"/>
      <point x="487" y="564" type="curve"/>
      <point x="487" y="524" type="line"/>
      <point x="582.112" y="524"/>
      <point x="633" y="457.857"/>
      <point x="633" y="340" type="curve" smooth="yes"/>
    </contour>
    <contour>
      <point x="70" y="196" type="curve" smooth="yes"/>
      <point x="70" y="250" type="line" smooth="yes"/>
      <point x="70" y="357.857"/>
      <point x="120.888" y="394"/>
      <point x="216" y="394" type="curve"/>
      <point x="216" y="434" type="line"/>
      <point x="96.7041" y="434"/>
      <point x="30.4199" y="376.263"/>
      <point x="30.0791" y="250" type="curve" smooth="yes"/>
      <point x="30.0791" y="196" type="line" smooth="yes"/>
      <point x="30.4199" y="79.7373"/>
      <point x="96.7041" y="-8"/>
      <point x="216" y="-8" type="curve"/>
      <point x="216" y="32" type="line"/>
      <point x="123.888" y="32"/>
      <point x="70" y="98.1426"/>
    </contour>
    <contour>
      <point x="269" y="271" type="line"/>
      <point x="306" y="271" type="line" smooth="yes"/>
      <point x="391.498" y="271"/>
      <point x="399.126" y="199.586"/>
      <point x="399.126" y="152.124" type="curve" smooth="yes"/>
      <point x="399.126" y="66.249"/>
      <point x="351.817" y="32"/>
      <point x="272" y="32" type="curve"/>
      <point x="272" y="-8" type="line"/>
      <point x="371.866" y="-8"/>
      <point x="439" y="42.873"/>
      <point x="439" y="145" type="curve" smooth="yes"/>
      <point x="439" y="164" type="line" smooth="yes"/>
      <point x="439" y="233"/>
      <point x="408.232" y="311"/>
      <point x="306" y="311" type="curve" smooth="yes"/>
      <point x="269" y="311" type="line"/>
    </contour>
    <contour>
      <point x="252" y="271" type="line" smooth="yes"/>
      <point x="293" y="271" type="line"/>
      <point x="293" y="361" type="line" smooth="yes"/>
      <point x="293" y="443"/>
      <point x="324.192" y="524"/>
      <point x="431" y="524" type="curve"/>
      <point x="431" y="564" type="line"/>
      <point x="309.062" y="564"/>
      <point x="252" y="478.007"/>
      <point x="252" y="360" type="curve" smooth="yes"/>
    </contour>
    <contour>
      <point x="374" y="188" type="move" smooth="yes"/>
    </contour>
  </outline>
</glyph>
<glyph name="si_MatraAa" format="1">
  <advance width="260"/>
  <unicode hex="0DCF"/>
  <outline>
    <contour>
      <point x="229.921" y="196.771" type="line" smooth="yes"/>
      <point x="229.921" y="67.8809"/>
      <point x="180.219" y="0"/>
      <point x="50" y="0" type="curve"/>
      <point x="30" y="0" type="line"/>
      <point x="30" y="40" type="line"/>
      <point x="50" y="40" type="line"/>
      <point x="102.112" y="40"/>
      <point x="189" y="46.1426"/>
      <point x="189" y="197" type="curve" smooth="yes"/>
      <point x="189" y="367" type="line" smooth="yes"/>
      <point x="189" y="517.857"/>
      <point x="102.112" y="524"/>
      <point x="50" y="524" type="curve"/>
      <point x="30" y="524" type="line"/>
      <point x="30" y="564" type="line"/>
      <point x="50" y="564" type="line"/>
      <point x="180.219" y="564"/>
      <point x="229.921" y="496.119"/>
      <point x="229.921" y="367.229" type="curve" smooth="yes"/>
    </contour>
  </outline>
</glyph>
<glyph name="si_MatraR" format="1">
  <advance width="355"/>
  <unicode hex="0DD8"/>
  <outline>
    <contour>
      <point x="242.88" y="137" type="line" smooth="yes"/>
      <point x="242.88" y="83.9268"/>
      <point x="199.073" y="40.1201"/>
      <point x="146" y="40.1201" type="curve" smooth="yes"/>
      <point x="92.9268" y="40.1201"/>
      <point x="49.1201" y="83.9268"/>
      <point x="49.1201" y="137" type="curve" smooth="yes"/>
      <point x="49.1201" y="190.073"/>
      <point x="92.9268" y="233.88"/>
      <point x="146" y="233.88" type="curve" smooth="yes"/>
      <point x="187" y="233.88" type="line"/>
      <point x="187" y="274.258" type="line"/>
      <point x="146" y="274.258" type="line" smooth="yes"/>
      <point x="70.8076" y="274.258"/>
      <point x="8.74219" y="212.192"/>
      <point x="8.74219" y="137" type="curve" smooth="yes"/>
      <point x="8.74219" y="61.8076"/>
      <point x="70.8076" y="-0.257812"/>
      <point x="146" y="-0.257812" type="curve" smooth="yes"/>
      <point x="221.192" y="-0.257812"/>
      <point x="283.258" y="61.8076"/>
      <point x="283.258" y="137" type="curve" smooth="yes"/>
      <point x="283.258" y="398.623" type="line"/>
      <point x="283.258" y="497.882"/>
      <point x="246" y="564"/>
      <point x="156" y="564" type="curve"/>
      <point x="68" y="564" type="line"/>
      <point x="68" y="524" type="line"/>
      <point x="158" y="524" type="line"/>
      <point x="210.112" y="524"/>
      <point x="243" y="477.623"/>
      <point x="243" y="398.623" type="curve"/>
    </contour>
  </outline>
</glyph>
<glyph name="trademark" format="1">
  <advance width="463"/>
  <unicode hex="2122"/>
  <outline>
    <contour>
      <point x="25.5898" y="687.572" type="line"/>
      <point x="25.5898" y="699.2" type="line"/>
      <point x="158.088" y="699.2" type="line"/>
      <point x="158.088" y="687.572" type="line"/>
      <point x="97.8057" y="687.572" type="line"/>
      <point x="97.8057" y="485" type="line"/>
      <point x="85.5664" y="485" type="line"/>
      <point x="85.5664" y="687.572" type="line"/>
    </contour>
    <contour>
      <point x="180.852" y="485" type="line"/>
      <point x="180.852" y="652.994" type="line"/>
      <point x="183.606" y="652.994" type="line"/>
      <point x="193.092" y="629.432" type="line"/>
      <point x="193.092" y="485" type="line"/>
    </contour>
    <contour>
      <point x="180.852" y="692.468" type="line"/>
      <point x="180.852" y="699.2" type="line"/>
      <point x="192.174" y="699.2" type="line"/>
      <point x="272.958" y="503.054" type="line"/>
      <point x="339.054" y="652.382" type="line"/>
      <point x="342.114" y="652.382" type="line"/>
      <point x="342.114" y="628.514" type="line"/>
      <point x="278.772" y="485" type="line"/>
      <point x="267.144" y="485" type="line"/>
    </contour>
    <contour>
      <point x="355.884" y="485" type="line"/>
      <point x="355.884" y="699.2" type="line"/>
      <point x="368.124" y="699.2" type="line"/>
      <point x="368.124" y="485" type="line"/>
    </contour>
  </outline>
</glyph>
<glyph name="uni2206" format="1">
  <advance width="414"/>
  <unicode hex="2206"/>
  <outline>
    <contour>
      <point x="12" y="0" type="line"/>
      <point x="399" y="0" type="line"/>
      <point x="218" y="706" type="line"/>
      <point x="194" y="706" type="line"/>
    </contour>
    <contour>
      <point x="60" y="36" type="line"/>
      <point x="208" y="607" type="line"/>
      <point x="351" y="36" type="line"/>
    </contour>
  </outline>
</glyph>
<glyph name="greaterequal" format="1">
  <advance width="414"/>
  <unicode hex="2265"/>
  <outline>
    <contour>
      <point x="27" y="53" type="line"/>
      <point x="27" y="91" type="line"/>
      <point x="384" y="91" type="line"/>
      <point x="384" y="53" type="line"/>
    </contour>
    <contour>
      <point x="30" y="145" type="line"/>
      <point x="30" y="185" type="line"/>
      <point x="338" y="358" type="line"/>
      <point x="30" y="526" type="line"/>
      <point x="30" y="566" type="line"/>
      <point x="384" y="374" type="line"/>
      <point x="384" y="342" type="line"/>
    </contour>
  </outline>
</glyph>
<glyph name="si_CIi" format="1">
  <advance width="590"/>
  <outline>
    <contour>
      <point x="186.5" y="819" type="curve" smooth="yes"/>
      <point x="279.5" y="819" type="line"/>
      <point x="279.5" y="779" type="line"/>
      <point x="176.5" y="779" type="line" smooth="yes"/>
      <point x="92.9385" y="779"/>
      <point x="91.7471" y="652"/>
      <point x="176.5" y="652" type="curve" smooth="yes"/>
      <point x="335" y="652" type="line"/>
      <point x="335" y="612" type="line"/>
      <point x="186.5" y="612" type="line" smooth="yes"/>
      <point x="37.1943" y="612"/>
      <point x="39.751" y="819"/>
    </contour>
    <contour>
      <point x="390.72" y="693.8" type="curve" smooth="yes"/>
      <point x="390.72" y="643.88"/>
      <point x="431.04" y="603.56"/>
      <point x="480.96" y="603.56" type="curve" smooth="yes"/>
      <point x="530.88" y="603.56"/>
      <point x="571.2" y="643.88"/>
      <point x="571.2" y="693.8" type="curve" smooth="yes"/>
      <point x="571.2" y="743.72"/>
      <point x="530.88" y="784.04"/>
      <point x="480.96" y="784.04" type="curve" smooth="yes"/>
      <point x="431.04" y="784.04"/>
      <point x="390.72" y="743.72"/>
    </contour>
    <contour>
      <point x="393" y="779" type="line" smooth="yes"/>
      <point x="439.783" y="779"/>
      <point x="526" y="771"/>
      <point x="526" y="693" type="curve"/>
      <point x="571.2" y="693.8" type="line"/>
      <point x="571.174" y="789.785"/>
      <point x="494.222" y="819"/>
      <point x="409" y="819" type="curve"/>
      <point x="334.5" y="819" type="line"/>
      <point x="334.5" y="779" type="line"/>
    </contour>
    <contour>
      <point x="335" y="0" type="line"/>
      <point x="494.37" y="0"/>
      <point x="560" y="83.9629"/>
      <point x="560" y="241" type="curve" smooth="yes"/>
      <point x="560" y="411" type="line" smooth="yes"/>
      <point x="560" y="568.037"/>
      <point x="494.37" y="652"/>
      <point x="335" y="652" type="curve"/>
      <point x="335" y="612" type="line"/>
      <point x="448.056" y="612"/>
      <point x="519" y="558.715"/>
      <point x="519" y="411" type="curve" smooth="yes"/>
      <point x="519" y="241" type="line" smooth="yes"/>
      <point x="519" y="95.2852"/>
      <point x="448.056" y="40"/>
      <point x="335" y="40" type="curve"/>
    </contour>
    <contour>
      <point x="209" y="309" type="line"/>
      <point x="79.9033" y="309"/>
      <point x="65.6875" y="40"/>
      <point x="279" y="40" type="curve"/>
      <point x="279" y="0" type="line"/>
      <point x="10.3691" y="0"/>
      <point x="22.9307" y="349"/>
      <point x="209" y="349" type="curve"/>
    </contour>
    <contour>
      <point x="30.0254" y="309" type="line"/>
      <point x="30" y="349" type="line"/>
      <point x="295" y="349" type="line"/>
      <point x="294.506" y="450.283"/>
      <point x="149.243" y="467.491"/>
      <point x="116" y="389" type="curve"/>
      <point x="77" y="399" type="line"/>
      <point x="107.677" y="516.998"/>
      <point x="335.062" y="506.469"/>
      <point x="334.932" y="354" type="curve" smooth="yes"/>
      <point x="335" y="309" type="line"/>
    </contour>
  </outline>
</glyph>
<glyph name="si_DDhU" format="1">
  <advance width="785"/>
  <outline>
    <contour>
      <point x="30" y="200" type="curve" smooth="yes"/>
      <point x="30" y="240" type="line" smooth="yes"/>
      <point x="30" y="335"/>
      <point x="60.9932" y="474.245"/>
      <point x="265.051" y="474.245" type="curve" smooth="yes"/>
      <point x="441" y="474" type="line"/>
      <point x="441" y="336" type="line"/>
      <point x="224" y="336" type="line" smooth="yes"/>
      <point x="174.46" y="336"/>
      <point x="166" y="283"/>
      <point x="166" y="244" type="curve" smooth="yes"/>
      <point x="166" y="170" type="line" smooth="yes"/>
      <point x="166" y="114.504"/>
      <point x="170.649" y="74.2246"/>
      <point x="223" y="12" type="curve"/>
      <point x="93.0391" y="-28" type="line"/>
      <point x="33.3975" y="49.1836"/>
      <point x="30" y="109.444"/>
    </contour>
    <contour>
      <point x="601" y="123" type="line"/>
      <point x="741" y="123" type="line"/>
      <point x="741" y="-205" type="line"/>
      <point x="601" y="-205" type="line"/>
    </contour>
    <contour>
      <point x="520" y="-65" type="line"/>
      <point x="611" y="-65" type="line"/>
      <point x="611" y="-205" type="line"/>
      <point x="520" y="-205" type="line"/>
    </contour>
    <contour>
      <point x="251" y="-65" type="line"/>
      <point x="464" y="-65" type="line"/>
      <point x="464" y="-205" type="line"/>
      <point x="251" y="-205" type="line"/>
    </contour>
    <component base="si_Dha" xOffset="192"/>
  </outline>
</glyph>
<glyph name="si_DVa" format="1">
  <advance width="568"/>
  <outline>
    <contour>
      <point x="30" y="169" type="curve" smooth="yes"/>
      <point x="30" y="289" type="line" smooth="yes"/>
      <point x="30" y="464.793"/>
      <point x="166.034" y="535.353"/>
      <point x="319" y="474" type="curve"/>
      <point x="319" y="375" type="line"/>
      <point x="282" y="385" type="line" smooth="yes"/>
      <point x="211" y="403"/>
      <point x="166" y="378"/>
      <point x="166" y="289" type="curve" smooth="yes"/>
      <point x="166" y="169" type="line" smooth="yes"/>
      <point x="166" y="88.4355"/>
      <point x="179.558" y="66.5967"/>
      <point x="223" y="12" type="curve"/>
      <point x="93.0391" y="-28" type="line"/>
      <point x="44.3975" y="41.1836"/>
      <point x="30" y="78.4443"/>
    </contour>
    <contour>
      <point x="220.333" y="566" type="curve"/>
      <point x="357.333" y="530" type="line"/>
      <point x="357.333" y="595.735"/>
      <point x="396.592" y="616.5"/>
      <point x="437" y="616.5" type="curve"/>
      <point x="437" y="755" type="line"/>
      <point x="330.46" y="755"/>
      <point x="220.333" y="672.126"/>
    </contour>
    <contour>
      <point x="220" y="401" type="line"/>
      <point x="245" y="479.755"/>
      <point x="305.743" y="501.648"/>
      <point x="360" y="501.648" type="curve" smooth="yes"/>
      <point x="441.635" y="501.648"/>
      <point x="504" y="449.686"/>
      <point x="504" y="369" type="curve" smooth="yes"/>
      <point x="504" y="252" type="line"/>
      <point x="420" y="252" type="line" smooth="yes"/>
      <point x="390" y="252"/>
      <point x="361" y="242"/>
      <point x="361" y="195" type="curve" smooth="yes"/>
      <point x="361" y="165.781"/>
      <point x="383.503" y="135"/>
      <point x="437" y="135" type="curve"/>
      <point x="437" y="-5" type="line"/>
      <point x="309.558" y="-5"/>
      <point x="223" y="87.2324"/>
      <point x="223" y="192" type="curve" smooth="yes"/>
      <point x="223" y="241"/>
      <point x="224.178" y="291.093"/>
      <point x="281" y="333" type="curve" smooth="yes"/>
      <point x="313.542" y="357"/>
      <point x="349.136" y="369"/>
      <point x="401" y="369" type="curve"/>
      <point x="401" y="387.974"/>
      <point x="383.963" y="399.185"/>
      <point x="360" y="399.185" type="curve" smooth="yes"/>
      <point x="342.77" y="399.185"/>
      <point x="323.131" y="393.124"/>
      <point x="319" y="375" type="curve"/>
    </contour>
    <contour>
      <point x="493" y="-5" type="line"/>
      <point x="647.968" y="-4.83398"/>
      <point x="728" y="78.4932"/>
      <point x="728" y="250" type="curve" smooth="yes"/>
      <point x="728" y="520" type="line" smooth="yes"/>
      <point x="728" y="699.969"/>
      <point x="627.272" y="755"/>
      <point x="493" y="755" type="curve"/>
      <point x="493" y="616" type="line"/>
      <point x="571.252" y="616"/>
      <point x="588" y="577"/>
      <point x="588" y="498" type="curve" smooth="yes"/>
      <point x="588" y="250" type="line" smooth="yes"/>
      <point x="588" y="149.137"/>
      <point x="535.411" y="135"/>
      <point x="493" y="135" type="curve"/>
    </contour>
  </outline>
</glyph>
<glyph name="si_DdhI" format="1">
  <advance width="624"/>
  <outline>
    <contour>
      <point x="218.744" y="645" type="line" smooth="yes"/>
      <point x="44" y="645"/>
      <point x="42.6318" y="922"/>
      <point x="247" y="922" type="curve" smooth="yes"/>
      <point x="433" y="922" type="line" smooth="yes"/>
      <point x="539" y="922"/>
      <point x="582.333" y="853.602"/>
      <point x="582.333" y="776" type="curve"/>
      <point x="447" y="776" type="line"/>
      <point x="447" y="804.182"/>
      <point x="426.614" y="805.917"/>
      <point x="388.849" y="806" type="curve" smooth="yes"/>
      <point x="247" y="806" type="line" smooth="yes"/>
      <point x="205.889" y="806"/>
      <point x="206.373" y="755"/>
      <point x="247" y="755" type="curve"/>
      <point x="247" y="645" type="line"/>
    </contour>
    <component base="si_Ddha"/>
  </outline>
</glyph>
<glyph name="si_DhUu" format="1">
  <advance width="580"/>
  <outline>
    <contour>
      <point x="51" y="-142" type="line"/>
      <point x="144.535" y="-190.947"/>
      <point x="167.632" y="-128"/>
      <point x="258" y="-128" type="curve"/>
      <point x="258" y="-170" type="line"/>
      <point x="167.532" y="-170"/>
      <point x="143.428" y="-228.959"/>
      <point x="51" y="-184" type="curve"/>
    </contour>
    <contour>
      <point x="314" y="-128" type="line"/>
      <point x="343.143" y="-128"/>
      <point x="418.825" y="-130.922"/>
      <point x="498" y="-161" type="curve"/>
      <point x="498" y="-205" type="line"/>
      <point x="413.61" y="-171.253"/>
      <point x="342" y="-170"/>
      <point x="314" y="-170" type="curve"/>
    </contour>
    <contour>
      <point x="498" y="83" type="line"/>
      <point x="538" y="83" type="line"/>
      <point x="538" y="-205" type="line"/>
      <point x="498" y="-205" type="line"/>
    </contour>
    <component base="si_Dha"/>
  </outline>
</glyph>
<glyph name="si_GhUu" format="1">
  <advance width="687"/>
  <outline>
    <contour>
      <point x="82" y="-122" type="line"/>
      <point x="191.535" y="-217.948"/>
      <point x="233.632" y="-122"/>
      <point x="334" y="-122" type="curve"/>
      <point x="334" y="-164" type="line"/>
      <point x="233.532" y="-164"/>
      <point x="190.427" y="-255.959"/>
      <point x="82" y="-164" type="curve"/>
    </contour>
    <contour>
      <point x="584" y="51" type="line"/>
      <point x="624" y="111" type="line"/>
      <point x="624" y="-205" type="line"/>
      <point x="584" y="-205" type="line"/>
    </contour>
    <contour>
      <point x="389" y="-122" type="line"/>
      <point x="418.143" y="-122"/>
      <point x="454.825" y="-121.922"/>
      <point x="584" y="-161" type="curve"/>
      <point x="584" y="-205" type="line"/>
      <point x="449.61" y="-162.253"/>
      <point x="405" y="-164"/>
      <point x="389" y="-164" type="curve"/>
    </contour>
    <component base="si_Gha"/>
  </outline>
</glyph>
<glyph name="si_JhU" format="1">
  <advance width="1138"/>
  <outline>
    <contour>
      <point x="1021" y="83" type="line"/>
      <point x="1061" y="83" type="line"/>
      <point x="1061" y="-205" type="line"/>
      <point x="1021" y="-205" type="line"/>
    </contour>
    <contour>
      <point x="837" y="-165" type="line"/>
      <point x="1021" y="-165" type="line"/>
      <point x="1021" y="-205" type="line"/>
      <point x="837" y="-205" type="line"/>
    </contour>
    <contour>
      <point x="572" y="-165" type="line"/>
      <point x="780" y="-165" type="line"/>
      <point x="780" y="-205" type="line"/>
      <point x="572" y="-205" type="line"/>
    </contour>
    <component base="si_Jha"/>
  </outline>
</glyph>
<glyph name="si_Jh.halant" format="1">
  <advance width="1138"/>
  <outline>
    <contour>
      <point x="848" y="779" type="line"/>
      <point x="848" y="819" type="line"/>
      <point x="925" y="819" type="line" smooth="yes"/>
      <point x="1003.36" y="819"/>
      <point x="1058.33" y="776"/>
      <point x="1058.33" y="673" type="curve"/>
      <point x="1018.33" y="673" type="line"/>
      <point x="1018.33" y="770"/>
      <point x="970.333" y="779"/>
      <point x="925" y="779" type="curve" smooth="yes"/>
    </contour>
    <contour>
      <point x="696" y="819" type="curve" smooth="yes"/>
      <point x="791.667" y="819" type="line"/>
      <point x="791.667" y="779" type="line"/>
      <point x="686" y="779" type="line" smooth="yes"/>
      <point x="602.438" y="779"/>
      <point x="601.247" y="652"/>
      <point x="686" y="652" type="curve" smooth="yes"/>
      <point x="792" y="652" type="line"/>
      <point x="792" y="612" type="line"/>
      <point x="696" y="612" type="line" smooth="yes"/>
      <point x="546.694" y="612"/>
      <point x="549.251" y="819"/>
    </contour>
    <contour>
      <point x="575.333" y="612" type="line"/>
      <point x="575.333" y="652" type="line"/>
      <point x="757.333" y="652" type="line"/>
      <point x="757.333" y="612" type="line"/>
    </contour>
    <contour>
      <point x="33" y="452" type="line"/>
      <point x="98" y="622"/>
      <point x="291" y="576"/>
      <point x="320" y="473" type="curve"/>
      <point x="289" y="445" type="line"/>
      <point x="265" y="531"/>
      <point x="121" y="563"/>
      <point x="72" y="440" type="curve"/>
    </contour>
    <contour>
      <point x="30" y="196" type="curve"/>
      <point x="30" y="246" type="line"/>
      <point x="100" y="237"/>
      <point x="105.981" y="184.713"/>
      <point x="106" y="166" type="curve"/>
      <point x="106" y="114" type="line" smooth="yes"/>
      <point x="106" y="19.873"/>
      <point x="256" y="4.50586"/>
      <point x="256" y="114" type="curve" smooth="yes"/>
      <point x="256" y="192" type="line"/>
      <point x="295.88" y="192" type="line"/>
      <point x="296" y="114" type="line" smooth="yes"/>
      <point x="296.168" y="4.61133"/>
      <point x="462.997" y="19.79"/>
      <point x="463" y="114" type="curve" smooth="yes"/>
      <point x="463.004" y="240" type="line" smooth="yes"/>
      <point x="463.004" y="331.199"/>
      <point x="426" y="355"/>
      <point x="326.776" y="369.904" type="curve"/>
      <point x="365" y="403" type="line"/>
      <point x="441" y="391"/>
      <point x="503" y="361.827"/>
      <point x="503" y="240" type="curve" smooth="yes"/>
      <point x="503" y="114" type="line" smooth="yes"/>
      <point x="503" y="-11.1279"/>
      <point x="357.3" y="-35.5664"/>
      <point x="276" y="36" type="curve"/>
      <point x="203.39" y="-42.9121"/>
      <point x="65.0029" y="-2.125"/>
      <point x="65.0029" y="114" type="curve" smooth="yes"/>
      <point x="65.0488" y="146.19" type="line" smooth="yes"/>
      <point x="65.0488" y="167.92"/>
      <point x="63.5771" y="199"/>
      <point x="44" y="199" type="curve" smooth="yes"/>
      <point x="40.7168" y="199"/>
      <point x="34.2529" y="197.3"/>
    </contour>
    <contour>
      <point x="706" y="440" type="line"/>
      <point x="656" y="562"/>
      <point x="474.437" y="570.136"/>
      <point x="349" y="466" type="curve"/>
      <point x="69" y="225" type="line"/>
      <point x="30" y="196" type="line"/>
      <point x="30" y="246" type="line"/>
      <point x="320" y="494" type="line"/>
      <point x="474.245" y="613.713"/>
      <point x="691" y="612"/>
      <point x="753" y="440" type="curve"/>
    </contour>
    <contour>
      <point x="733.667" y="440" type="line"/>
      <point x="607.846" y="440"/>
      <point x="595" y="335.941"/>
      <point x="595" y="301" type="curve" smooth="yes"/>
      <point x="595" y="139" type="line" smooth="yes"/>
      <point x="595" y="104.059"/>
      <point x="617.846" y="40"/>
      <point x="694" y="40" type="curve" smooth="yes"/>
      <point x="769.154" y="40"/>
      <point x="792" y="104.059"/>
      <point x="792" y="139" type="curve" smooth="yes"/>
      <point x="792" y="192" type="line"/>
      <point x="834" y="192" type="line"/>
      <point x="834" y="133" type="line" smooth="yes"/>
      <point x="834" y="52.25"/>
      <point x="775.893" y="0"/>
      <point x="694" y="0" type="curve" smooth="yes"/>
      <point x="611.107" y="0"/>
      <point x="553" y="52.25"/>
      <point x="553" y="133" type="curve" smooth="yes"/>
      <point x="553" y="307" type="line" smooth="yes"/>
      <point x="553" y="387.75"/>
      <point x="601.107" y="480"/>
      <point x="723.667" y="480" type="curve"/>
      <point x="729" y="480" type="line"/>
      <point x="753" y="440" type="line"/>
    </contour>
    <contour>
      <point x="792" y="133" type="curve" smooth="yes"/>
      <point x="792" y="192" type="line"/>
      <point x="834" y="192" type="line"/>
      <point x="834" y="139" type="line" smooth="yes"/>
      <point x="834" y="104.059"/>
      <point x="856.846" y="40"/>
      <point x="932" y="40" type="curve" smooth="yes"/>
      <point x="1008.15" y="40"/>
      <point x="1031" y="104.059"/>
      <point x="1031" y="139" type="curve" smooth="yes"/>
      <point x="1031" y="242" type="line"/>
      <point x="1073" y="242" type="line"/>
      <point x="1073" y="133" type="line" smooth="yes"/>
      <point x="1073" y="52.25"/>
      <point x="1014.89" y="0"/>
      <point x="932" y="0" type="curve" smooth="yes"/>
      <point x="850.107" y="0"/>
      <point x="792" y="52.25"/>
    </contour>
    <contour>
      <point x="848" y="652" type="line"/>
      <point x="1007.37" y="652"/>
      <point x="1073" y="568.037"/>
      <point x="1073" y="411" type="curve" smooth="yes"/>
      <point x="1073" y="241" type="line" smooth="yes"/>
      <point x="1031" y="241" type="line" smooth="yes"/>
      <point x="1031" y="411" type="line" smooth="yes"/>
      <point x="1031" y="558.715"/>
      <point x="961.056" y="612"/>
      <point x="848" y="612" type="curve"/>
    </contour>
  </outline>
</glyph>
<glyph name="si_KSsa" format="1">
  <advance width="1138"/>
  <outline>
    <contour>
      <point x="592" y="460" type="line"/>
      <point x="616.046" y="536.591"/>
      <point x="683.808" y="574.548"/>
      <point x="755.252" y="574.548" type="curve" smooth="yes"/>
      <point x="796.893" y="574.548"/>
      <point x="839.783" y="561.654"/>
      <point x="876" y="536" type="curve"/>
      <point x="912.253" y="561.681"/>
      <point x="955.124" y="574.564"/>
      <point x="996.729" y="574.564" type="curve" smooth="yes"/>
      <point x="1068.22" y="574.564"/>
      <point x="1135.97" y="536.524"/>
      <point x="1160" y="460" type="curve"/>
      <point x="1042" y="421" type="line"/>
      <point x="1037.58" y="436"/>
      <point x="1022.78" y="451"/>
      <point x="995" y="451" type="curve" smooth="yes"/>
      <point x="979.669" y="451"/>
      <point x="940" y="443.165"/>
      <point x="940" y="397" type="curve"/>
      <point x="940" y="378" type="line"/>
      <point x="812" y="378" type="line"/>
      <point x="812" y="397" type="line"/>
      <point x="812" y="443.165"/>
      <point x="772.331" y="451"/>
      <point x="757" y="451" type="curve" smooth="yes"/>
      <point x="729.217" y="451"/>
      <point x="714.416" y="436"/>
      <point x="710" y="421" type="curve"/>
    </contour>
    <contour>
      <point x="788" y="168" type="line"/>
      <point x="788" y="276.977"/>
      <point x="874" y="345"/>
      <point x="936" y="367" type="curve"/>
      <point x="1102" y="367" type="line"/>
      <point x="1027" y="342"/>
      <point x="922" y="259.976"/>
      <point x="922" y="170" type="curve"/>
    </contour>
    <contour>
      <point x="574" y="202" type="curve"/>
      <point x="714" y="202" type="line"/>
      <point x="714" y="148.801"/>
      <point x="755" y="123"/>
      <point x="818" y="123" type="curve" smooth="yes"/>
      <point x="930" y="123" type="line" smooth="yes"/>
      <point x="995" y="123"/>
      <point x="1034" y="151"/>
      <point x="1034" y="202" type="curve"/>
      <point x="1174" y="202" type="line"/>
      <point x="1174" y="64"/>
      <point x="1091" y="-12"/>
      <point x="922" y="-12" type="curve" smooth="yes"/>
      <point x="829" y="-12" type="line" smooth="yes"/>
      <point x="652" y="-12"/>
      <point x="574" y="59.2461"/>
    </contour>
    <contour>
      <point x="575" y="251" type="line"/>
      <point x="575" y="377.04"/>
      <point x="641" y="407"/>
      <point x="738" y="407" type="curve" smooth="yes"/>
      <point x="1003" y="407" type="line" smooth="yes"/>
      <point x="1111" y="407"/>
      <point x="1174" y="381.172"/>
      <point x="1174" y="251" type="curve"/>
      <point x="1035" y="251" type="line"/>
      <point x="1035" y="264.875"/>
      <point x="1035" y="288"/>
      <point x="1006" y="288" type="curve" smooth="yes"/>
      <point x="749" y="288" type="line" smooth="yes"/>
      <point x="715.738" y="288"/>
      <point x="714.001" y="263.84"/>
      <point x="714" y="251" type="curve"/>
    </contour>
    <contour>
      <point x="30" y="439" type="line"/>
      <point x="44" y="537"/>
      <point x="136.521" y="567"/>
      <point x="198" y="567" type="curve" smooth="yes"/>
      <point x="270.695" y="567"/>
      <point x="320" y="533"/>
      <point x="337" y="502" type="curve"/>
      <point x="245" y="402" type="line"/>
      <point x="245" y="437"/>
      <point x="214.169" y="446"/>
      <point x="198" y="446" type="curve" smooth="yes"/>
      <point x="164.069" y="446"/>
      <point x="147" y="422.741"/>
      <point x="147" y="402" type="curve"/>
    </contour>
    <contour>
      <point x="30" y="160" type="curve"/>
      <point x="147" y="255" type="line"/>
      <point x="165.91" y="239.066"/>
      <point x="180.861" y="220.713"/>
      <point x="180.88" y="202" type="curve"/>
      <point x="181" y="160" type="line" smooth="yes"/>
      <point x="181.107" y="122.479"/>
      <point x="240" y="122.546"/>
      <point x="240" y="160" type="curve" smooth="yes"/>
      <point x="240" y="202" type="line"/>
      <point x="339.88" y="202" type="line"/>
      <point x="340" y="162" type="line" smooth="yes"/>
      <point x="340.122" y="121.477"/>
      <point x="400" y="121.548"/>
      <point x="400" y="162" type="curve" smooth="yes"/>
      <point x="400.004" y="202.128" type="line" smooth="yes"/>
      <point x="400.004" y="233.327"/>
      <point x="393.873" y="258.737"/>
      <point x="351" y="276" type="curve"/>
      <point x="448.224" y="354.096" type="line"/>
      <point x="511.602" y="326.931"/>
      <point x="529" y="279.827"/>
      <point x="529" y="218" type="curve" smooth="yes"/>
      <point x="529" y="136" type="line" smooth="yes"/>
      <point x="529" y="2.60352"/>
      <point x="363.235" y="-52.7676"/>
      <point x="290" y="36" type="curve"/>
      <point x="229.787" y="-51.9111"/>
      <point x="64.9819" y="8.54395"/>
      <point x="65" y="106" type="curve" smooth="yes"/>
      <point x="65.0029" y="121.756" type="line" smooth="yes"/>
      <point x="65.0029" y="141.945"/>
      <point x="64.3154" y="161.906"/>
      <point x="41.2734" y="161.906" type="curve" smooth="yes"/>
      <point x="37.9902" y="161.906"/>
      <point x="34.2529" y="161.3"/>
    </contour>
    <contour>
      <point x="30" y="160" type="line"/>
      <point x="30" y="259" type="line"/>
      <point x="335" y="509" type="line"/>
      <point x="512.717" y="640.303"/>
      <point x="726" y="569"/>
      <point x="752" y="518" type="curve"/>
      <point x="655" y="439" type="line"/>
      <point x="592" y="460"/>
      <point x="509" y="469"/>
      <point x="425" y="400" type="curve"/>
      <point x="155" y="181.392" type="line"/>
    </contour>
  </outline>
</glyph>
<glyph name="si_KUu" format="1">
  <advance width="788"/>
  <outline>
    <contour>
      <point x="631" y="130" type="line"/>
      <point x="671.846" y="130"/>
      <point x="690.118" y="145.393"/>
      <point x="690" y="178" type="curve"/>
      <point x="730" y="178" type="line"/>
      <point x="730.021" y="165.393"/>
      <point x="726.555" y="142"/>
      <point x="717" y="130" type="curve"/>
    </contour>
    <contour>
      <point x="586" y="0" type="line"/>
      <point x="586" y="40" type="line"/>
      <point x="783" y="40" type="line"/>
      <point x="783" y="0" type="line"/>
    </contour>
    <contour>
      <point x="603.945" y="-64" type="line" smooth="yes"/>
      <point x="603.945" y="-28.1055"/>
      <point x="614.889" y="-9.99219"/>
      <point x="631" y="0" type="curve" smooth="yes"/>
      <point x="769" y="0" type="line"/>
      <point x="761.74" y="0"/>
      <point x="725.654" y="0"/>
      <point x="719" y="0" type="curve" smooth="yes"/>
      <point x="662.47" y="0"/>
      <point x="644" y="-28.6729"/>
      <point x="644" y="-64" type="curve" smooth="yes"/>
      <point x="644" y="-104" type="line" smooth="yes"/>
      <point x="644.12" y="-133.833"/>
      <point x="659.775" y="-164"/>
      <point x="702" y="-164" type="curve" smooth="yes"/>
      <point x="715.071" y="-164"/>
      <point x="776.624" y="-164"/>
      <point x="783" y="-164" type="curve"/>
      <point x="783" y="-205" type="line"/>
      <point x="702" y="-205.003" type="line" smooth="yes"/>
      <point x="645.875" y="-205.003"/>
      <point x="604" y="-161.81"/>
      <point x="604" y="-104" type="curve" smooth="yes"/>
    </contour>
    <contour>
      <point x="586" y="40" type="line"/>
      <point x="698" y="90" type="line"/>
      <point x="783" y="90" type="line"/>
      <point x="671" y="40" type="line"/>
    </contour>
    <contour>
      <point x="586" y="90" type="line"/>
      <point x="586" y="130" type="line"/>
      <point x="783" y="130" type="line"/>
      <point x="783" y="90" type="line"/>
    </contour>
    <contour>
      <point x="33" y="452" type="line"/>
      <point x="98" y="622"/>
      <point x="291" y="576"/>
      <point x="320" y="473" type="curve"/>
      <point x="289" y="445" type="line"/>
      <point x="265" y="531"/>
      <point x="121" y="563"/>
      <point x="72" y="440" type="curve"/>
    </contour>
    <contour>
      <point x="30" y="196" type="curve"/>
      <point x="30" y="246" type="line"/>
      <point x="100" y="237"/>
      <point x="105.981" y="184.713"/>
      <point x="106" y="166" type="curve"/>
      <point x="106" y="114" type="line" smooth="yes"/>
      <point x="106" y="19.873"/>
      <point x="256" y="4.50586"/>
      <point x="256" y="114" type="curve" smooth="yes"/>
      <point x="256" y="192" type="line"/>
      <point x="295.88" y="192" type="line"/>
      <point x="296" y="114" type="line" smooth="yes"/>
      <point x="296.168" y="4.61133"/>
      <point x="462.997" y="19.79"/>
      <point x="463" y="114" type="curve" smooth="yes"/>
      <point x="463.004" y="240" type="line" smooth="yes"/>
      <point x="463.004" y="331.199"/>
      <point x="426" y="355"/>
      <point x="326.776" y="369.904" type="curve"/>
      <point x="365" y="403" type="line"/>
      <point x="441" y="391"/>
      <point x="503" y="361.827"/>
      <point x="503" y="240" type="curve" smooth="yes"/>
      <point x="503" y="114" type="line" smooth="yes"/>
      <point x="503" y="-11.1279"/>
      <point x="357.3" y="-35.5664"/>
      <point x="276" y="36" type="curve"/>
      <point x="203.39" y="-42.9121"/>
      <point x="65.0029" y="-2.125"/>
      <point x="65.0029" y="114" type="curve" smooth="yes"/>
      <point x="65.0488" y="146.19" type="line" smooth="yes"/>
      <point x="65.0488" y="167.92"/>
      <point x="63.5771" y="199"/>
      <point x="44" y="199" type="curve" smooth="yes"/>
      <point x="40.7168" y="199"/>
      <point x="34.2529" y="197.3"/>
    </contour>
    <contour>
      <point x="690" y="106" type="line" smooth="yes"/>
      <point x="690" y="314" type="line" smooth="yes"/>
      <point x="690" y="528.308"/>
      <point x="474.437" y="570.136"/>
      <point x="349" y="466" type="curve"/>
      <point x="69" y="225" type="line"/>
      <point x="30" y="196" type="line"/>
      <point x="30" y="246" type="line"/>
      <point x="320" y="494" type="line"/>
      <point x="474.245" y="613.713"/>
      <point x="730" y="579.478"/>
      <point x="730" y="314" type="curve" smooth="yes"/>
      <point x="730" y="178" type="line"/>
      <point x="710" y="106" type="line" smooth="yes"/>
    </contour>
  </outline>
</glyph>
<glyph name="si_KhU" format="1">
  <advance width="586"/>
  <outline>
    <contour>
      <point x="498" y="83" type="line"/>
      <point x="538" y="83" type="line"/>
      <point x="538" y="-205" type="line"/>
      <point x="498" y="-205" type="line"/>
    </contour>
    <contour>
      <point x="320" y="-165" type="line"/>
      <point x="498" y="-165" type="line"/>
      <point x="498" y="-205" type="line"/>
      <point x="320" y="-205" type="line"/>
    </contour>
    <contour>
      <point x="49" y="-165" type="line"/>
      <point x="264" y="-165" type="line"/>
      <point x="264" y="-205" type="line"/>
      <point x="49" y="-205" type="line"/>
    </contour>
    <component base="si_Kha"/>
  </outline>
</glyph>
<glyph name="si_Kh.halant" format="1">
  <advance width="586"/>
  <outline>
    <contour>
      <point x="311.5" y="779" type="line"/>
      <point x="311.5" y="819" type="line"/>
      <point x="401" y="819" type="line" smooth="yes"/>
      <point x="479.359" y="819"/>
      <point x="534.333" y="776"/>
      <point x="534.333" y="673" type="curve"/>
      <point x="494.333" y="673" type="line"/>
      <point x="494.333" y="770"/>
      <point x="446.333" y="779"/>
      <point x="401" y="779" type="curve" smooth="yes"/>
    </contour>
    <contour>
      <point x="162" y="819" type="curve" smooth="yes"/>
      <point x="256" y="819" type="line"/>
      <point x="256" y="779" type="line"/>
      <point x="152" y="779" type="line" smooth="yes"/>
      <point x="68.4385" y="779"/>
      <point x="67.2471" y="652"/>
      <point x="152" y="652" type="curve" smooth="yes"/>
      <point x="331" y="652" type="line"/>
      <point x="331" y="612" type="line"/>
      <point x="162" y="612" type="line" smooth="yes"/>
      <point x="12.6943" y="612"/>
      <point x="15.251" y="819"/>
    </contour>
    <contour>
      <point x="41.333" y="612" type="line"/>
      <point x="41.333" y="652" type="line"/>
      <point x="233.333" y="652" type="line"/>
      <point x="233.333" y="612" type="line"/>
    </contour>
    <contour>
      <point x="331" y="652" type="line"/>
      <point x="490.37" y="652"/>
      <point x="556" y="568.037"/>
      <point x="556" y="411" type="curve" smooth="yes"/>
      <point x="556" y="241" type="line" smooth="yes"/>
      <point x="514" y="241" type="line" smooth="yes"/>
      <point x="514" y="411" type="line" smooth="yes"/>
      <point x="514" y="558.715"/>
      <point x="444.056" y="612"/>
      <point x="331" y="612" type="curve"/>
    </contour>
    <contour>
      <point x="309" y="192" type="line"/>
      <point x="309" y="142" type="line" smooth="yes"/>
      <point x="309" y="9.53516"/>
      <point x="514" y="6.58008"/>
      <point x="514" y="142" type="curve"/>
      <point x="514" y="264" type="line"/>
      <point x="556" y="264" type="line"/>
      <point x="556" y="142" type="line"/>
      <point x="556" y="-53.7227"/>
      <point x="268" y="-52.7979"/>
      <point x="268" y="142" type="curve" smooth="yes"/>
      <point x="268" y="192" type="line"/>
    </contour>
    <contour>
      <point x="268" y="-65" type="line"/>
      <point x="268" y="284" type="line" smooth="yes"/>
      <point x="268" y="435.615"/>
      <point x="71.1309" y="435.811"/>
      <point x="71" y="284" type="curve" smooth="yes"/>
      <point x="70.917" y="177" type="line" smooth="yes"/>
      <point x="71" y="65"/>
      <point x="123.457" y="40"/>
      <point x="211" y="40" type="curve"/>
      <point x="211" y="0" type="line"/>
      <point x="91.1055" y="0"/>
      <point x="30" y="45"/>
      <point x="30" y="177" type="curve" smooth="yes"/>
      <point x="30" y="284" type="line" smooth="yes"/>
      <point x="30" y="494.932"/>
      <point x="309" y="497.915"/>
      <point x="309" y="284" type="curve" smooth="yes"/>
      <point x="309" y="-65" type="line"/>
    </contour>
  </outline>
</glyph>
<glyph name="si_NThIi" format="1">
  <advance width="1078"/>
  <outline>
    <contour>
      <point x="536.526" y="776.125" type="curve" smooth="yes"/>
      <point x="536.526" y="709.419"/>
      <point x="580.476" y="645"/>
      <point x="664.744" y="645" type="curve" smooth="yes"/>
      <point x="693" y="645" type="line"/>
      <point x="693" y="755" type="line"/>
      <point x="672.626" y="755"/>
      <point x="662.348" y="767.825"/>
      <point x="662.348" y="780.613" type="curve" smooth="yes"/>
      <point x="662.348" y="793.325"/>
      <point x="672.505" y="806"/>
      <point x="693" y="806" type="curve" smooth="yes"/>
      <point x="832.286" y="806" type="line"/>
      <point x="832.331" y="749.79"/>
      <point x="882.692" y="706"/>
      <point x="940" y="706" type="curve" smooth="yes"/>
      <point x="1000" y="706"/>
      <point x="1048" y="754"/>
      <point x="1048" y="814" type="curve" smooth="yes"/>
      <point x="1048" y="874"/>
      <point x="1000" y="922"/>
      <point x="940" y="922" type="curve" smooth="yes"/>
      <point x="693" y="922" type="line" smooth="yes"/>
      <point x="587.187" y="922"/>
      <point x="536.526" y="847.744"/>
    </contour>
    <component base="si_NTha"/>
  </outline>
</glyph>
<glyph name="si_NVIi" format="1">
  <advance width="1082"/>
  <outline>
    <contour>
      <point x="839" y="711" type="curve" smooth="yes"/>
      <point x="839" y="651"/>
      <point x="887" y="603"/>
      <point x="947" y="603" type="curve" smooth="yes"/>
      <point x="1007" y="603"/>
      <point x="1055" y="651"/>
      <point x="1055" y="711" type="curve" smooth="yes"/>
      <point x="1055" y="771"/>
      <point x="1007" y="819"/>
      <point x="947" y="819" type="curve" smooth="yes"/>
      <point x="887" y="819"/>
      <point x="839" y="771"/>
    </contour>
    <contour>
      <point x="817" y="703" type="line"/>
      <point x="947" y="703" type="line"/>
      <point x="947" y="819" type="line"/>
      <point x="817" y="819" type="line"/>
    </contour>
    <contour>
      <point x="703" y="645" type="curve" smooth="yes"/>
      <point x="760.667" y="645" type="line"/>
      <point x="760.667" y="522" type="line"/>
      <point x="714" y="522" type="line" smooth="yes"/>
      <point x="477.896" y="522"/>
      <point x="477.104" y="819"/>
      <point x="714" y="819" type="curve" smooth="yes"/>
      <point x="761" y="819" type="line"/>
      <point x="761" y="703" type="line"/>
      <point x="703" y="703" type="line" smooth="yes"/>
      <point x="654.085" y="703"/>
      <point x="654.209" y="645"/>
    </contour>
    <contour>
      <point x="817" y="-5" type="line"/>
      <point x="971.968" y="-4.83398"/>
      <point x="1052" y="78"/>
      <point x="1052" y="250" type="curve" smooth="yes"/>
      <point x="1052" y="474" type="line" smooth="yes"/>
      <point x="1052" y="595"/>
      <point x="1000.62" y="644.943"/>
      <point x="865" y="644.92" type="curve" smooth="yes"/>
      <point x="853.84" y="644.918"/>
      <point x="829.176" y="645"/>
      <point x="817" y="645" type="curve"/>
      <point x="817" y="522" type="line"/>
      <point x="869.736" y="522"/>
      <point x="912" y="514"/>
      <point x="912" y="455" type="curve" smooth="yes"/>
      <point x="912" y="250" type="line" smooth="yes"/>
      <point x="912" y="149"/>
      <point x="859.411" y="135"/>
      <point x="817" y="135" type="curve"/>
    </contour>
    <contour>
      <point x="32" y="439" type="line"/>
      <point x="46" y="537"/>
      <point x="138.521" y="567"/>
      <point x="200" y="567" type="curve" smooth="yes"/>
      <point x="268.511" y="567"/>
      <point x="331" y="522"/>
      <point x="331" y="506" type="curve"/>
      <point x="247" y="402" type="line"/>
      <point x="247" y="437"/>
      <point x="216.169" y="446"/>
      <point x="200" y="446" type="curve" smooth="yes"/>
      <point x="166.069" y="446"/>
      <point x="149" y="422.741"/>
      <point x="149" y="402" type="curve"/>
    </contour>
    <contour>
      <point x="125" y="165" type="line"/>
      <point x="125" y="304" type="line" smooth="yes"/>
      <point x="149.771" y="303.963" type="line" smooth="yes"/>
      <point x="176.32" y="303.963"/>
      <point x="251.206" y="435.953"/>
      <point x="283.456" y="479" type="curve"/>
      <point x="401.423" y="656.675"/>
      <point x="831" y="614"/>
      <point x="828" y="339" type="curve"/>
      <point x="828" y="252" type="line"/>
      <point x="744" y="252" type="line" smooth="yes"/>
      <point x="714" y="252"/>
      <point x="685" y="242"/>
      <point x="685" y="195" type="curve" smooth="yes"/>
      <point x="685" y="165.781"/>
      <point x="707.503" y="135"/>
      <point x="761" y="135" type="curve"/>
      <point x="761" y="-5" type="line"/>
      <point x="633.558" y="-5"/>
      <point x="547" y="84.2324"/>
      <point x="547" y="189" type="curve" smooth="yes"/>
      <point x="547" y="265.484"/>
      <point x="568.439" y="349"/>
      <point x="686" y="369" type="curve"/>
      <point x="651.699" y="447.451"/>
      <point x="576.575" y="452.589"/>
      <point x="519.43" y="452.589" type="curve" smooth="yes"/>
      <point x="454.63" y="452.589"/>
      <point x="402.375" y="422.837"/>
      <point x="373" y="384" type="curve" smooth="yes"/>
      <point x="295.093" y="281" type="line"/>
      <point x="239.657" y="208"/>
      <point x="201.849" y="165"/>
      <point x="154" y="165" type="curve"/>
    </contour>
    <contour>
      <point x="30" y="256" type="curve"/>
      <point x="30" y="344" type="line"/>
      <point x="148" y="344" type="line"/>
      <point x="148" y="313"/>
      <point x="148" y="301"/>
      <point x="148" y="270" type="curve" smooth="yes"/>
      <point x="148" y="150.343"/>
      <point x="208.982" y="127"/>
      <point x="278" y="127" type="curve" smooth="yes"/>
      <point x="358.634" y="127"/>
      <point x="389" y="218"/>
      <point x="336" y="251" type="curve"/>
      <point x="412.215" y="354.312" type="line"/>
      <point x="569" y="271"/>
      <point x="518.12" y="-7.85059"/>
      <point x="282" y="-8" type="curve" smooth="yes"/>
      <point x="134" y="-8.09375"/>
      <point x="30" y="85.0723"/>
    </contour>
  </outline>
</glyph>
<glyph name="si_NnUu" format="1">
  <advance width="1019"/>
  <outline>
    <contour>
      <point x="554" y="160" type="curve" smooth="yes"/>
      <point x="554" y="202" type="line"/>
      <point x="594" y="202" type="line"/>
      <point x="594" y="160" type="line" smooth="yes"/>
      <point x="594" y="-8.01074"/>
      <point x="952" y="-8.55176"/>
      <point x="952" y="160" type="curve" smooth="yes"/>
      <point x="952" y="202" type="line"/>
      <point x="992" y="202" type="line"/>
      <point x="992" y="160" type="line" smooth="yes"/>
      <point x="992" y="-62.4902"/>
      <point x="554" y="-61.7881"/>
    </contour>
    <contour>
      <point x="18.999" y="2" type="line"/>
      <point x="57" y="79"/>
      <point x="119.746" y="81.625"/>
      <point x="149.294" y="81.625" type="curve" smooth="yes"/>
      <point x="227.58" y="81.625"/>
      <point x="275.148" y="37.6621"/>
      <point x="336.312" y="37.6621" type="curve" smooth="yes"/>
      <point x="378.779" y="37.6621"/>
      <point x="458" y="68.5"/>
      <point x="458" y="173" type="curve" smooth="yes"/>
      <point x="458" y="383" type="line" smooth="yes"/>
      <point x="458" y="511.834"/>
      <point x="382.322" y="566"/>
      <point x="287" y="566" type="curve" smooth="yes"/>
      <point x="133.17" y="566"/>
      <point x="105" y="434.254"/>
      <point x="105" y="398" type="curve" smooth="yes"/>
      <point x="105" y="365.455"/>
      <point x="114.839" y="242"/>
      <point x="266" y="242" type="curve" smooth="yes"/>
      <point x="286.513" y="242"/>
      <point x="306" y="242"/>
      <point x="322" y="242" type="curve"/>
      <point x="322" y="202" type="line"/>
      <point x="312" y="202"/>
      <point x="271.156" y="201.959"/>
      <point x="245.25" y="201.959" type="curve" smooth="yes"/>
      <point x="148.378" y="201.959"/>
      <point x="65" y="275.274"/>
      <point x="65" y="398" type="curve" smooth="yes"/>
      <point x="65" y="535"/>
      <point x="177" y="606"/>
      <point x="287" y="606" type="curve" smooth="yes"/>
      <point x="497.698" y="606"/>
      <point x="499.075" y="430.731"/>
      <point x="499.075" y="383" type="curve" smooth="yes"/>
      <point x="499.075" y="368.861"/>
      <point x="499" y="191.315"/>
      <point x="499" y="173" type="curve" smooth="yes"/>
      <point x="499" y="35.7334"/>
      <point x="393.319" y="-2.80078"/>
      <point x="337.145" y="-2.80078" type="curve" smooth="yes"/>
      <point x="265.229" y="-2.80078"/>
      <point x="214.196" y="40.3574"/>
      <point x="149.294" y="40.3574" type="curve" smooth="yes"/>
      <point x="113.717" y="40.3574"/>
      <point x="75" y="31"/>
      <point x="58" y="-8" type="curve"/>
    </contour>
    <contour>
      <point x="381.277" y="581" type="line"/>
      <point x="534.999" y="784" type="line"/>
      <point x="581" y="772" type="line"/>
      <point x="409.999" y="546" type="line"/>
    </contour>
    <contour>
      <point x="544.713" y="496.966" type="line"/>
      <point x="565.939" y="514.641"/>
      <point x="592.834" y="523.919"/>
      <point x="619.104" y="523.919" type="curve" smooth="yes"/>
      <point x="670.235" y="523.919"/>
      <point x="719" y="488.775"/>
      <point x="719" y="412" type="curve"/>
      <point x="719" y="251" type="line"/>
      <point x="759" y="251" type="line"/>
      <point x="759" y="412" type="line" smooth="yes"/>
      <point x="759" y="487.498"/>
      <point x="807.192" y="525.181"/>
      <point x="855.414" y="525.181" type="curve" smooth="yes"/>
      <point x="903.692" y="525.181"/>
      <point x="952" y="487.408"/>
      <point x="952" y="412" type="curve" smooth="yes"/>
      <point x="952" y="251" type="line"/>
      <point x="992" y="251" type="line"/>
      <point x="992" y="412" type="line" smooth="yes"/>
      <point x="992" y="514.768"/>
      <point x="925.214" y="564.559"/>
      <point x="857.708" y="564.559" type="curve" smooth="yes"/>
      <point x="811.491" y="564.559"/>
      <point x="764.938" y="541.222"/>
      <point x="739.246" y="495.568" type="curve"/>
      <point x="713.782" y="541.438"/>
      <point x="667.228" y="563.793"/>
      <point x="620.729" y="563.793" type="curve" smooth="yes"/>
      <point x="588.852" y="563.793"/>
      <point x="557.002" y="553.288"/>
      <point x="531.991" y="532.649" type="curve"/>
    </contour>
    <contour>
      <point x="314" y="-34" type="line"/>
      <point x="354.479" y="-59.333"/>
      <point x="390.005" y="-67.7773"/>
      <point x="422.741" y="-67.7773" type="curve" smooth="yes"/>
      <point x="474.051" y="-67.7773"/>
      <point x="527.616" y="-34"/>
      <point x="575" y="-34" type="curve"/>
      <point x="575" y="-174" type="line"/>
      <point x="527.616" y="-174"/>
      <point x="474.051" y="-204.777"/>
      <point x="422.741" y="-204.777" type="curve" smooth="yes"/>
      <point x="390.005" y="-204.777"/>
      <point x="354.479" y="-197.083"/>
      <point x="314" y="-174" type="curve"/>
    </contour>
    <contour>
      <point x="828" y="131" type="line"/>
      <point x="968" y="131" type="line"/>
      <point x="968" y="-205" type="line"/>
      <point x="828" y="-205" type="line"/>
    </contour>
    <contour>
      <point x="633" y="-34" type="line"/>
      <point x="662.143" y="-34"/>
      <point x="788.825" y="-39.9219"/>
      <point x="828" y="-61" type="curve"/>
      <point x="828" y="-205" type="line"/>
      <point x="783.61" y="-180.253"/>
      <point x="669" y="-174"/>
      <point x="633" y="-174" type="curve"/>
    </contour>
  </outline>
</glyph>
<glyph name="si_RAe" format="1">
  <advance width="829"/>
  <outline>
    <contour>
      <point x="551" y="160" type="curve" smooth="yes"/>
      <point x="551" y="202" type="line"/>
      <point x="591" y="202" type="line"/>
      <point x="591" y="160" type="line" smooth="yes"/>
      <point x="591" y="-8.01074"/>
      <point x="949" y="-8.55176"/>
      <point x="949" y="160" type="curve" smooth="yes"/>
      <point x="949" y="202" type="line"/>
      <point x="989" y="202" type="line"/>
      <point x="989" y="160" type="line" smooth="yes"/>
      <point x="989" y="-62.4902"/>
      <point x="551" y="-61.7881"/>
    </contour>
    <contour>
      <point x="15.999" y="2" type="line"/>
      <point x="54" y="79"/>
      <point x="116.746" y="81.625"/>
      <point x="146.294" y="81.625" type="curve" smooth="yes"/>
      <point x="224.58" y="81.625"/>
      <point x="272.148" y="37.6621"/>
      <point x="333.312" y="37.6621" type="curve" smooth="yes"/>
      <point x="375.779" y="37.6621"/>
      <point x="455" y="68.5"/>
      <point x="455" y="173" type="curve" smooth="yes"/>
      <point x="455" y="383" type="line" smooth="yes"/>
      <point x="455" y="511.834"/>
      <point x="379.322" y="566"/>
      <point x="284" y="566" type="curve" smooth="yes"/>
      <point x="130.17" y="566"/>
      <point x="102" y="434.254"/>
      <point x="102" y="398" type="curve" smooth="yes"/>
      <point x="102" y="365.455"/>
      <point x="111.839" y="242"/>
      <point x="263" y="242" type="curve" smooth="yes"/>
      <point x="283.513" y="242"/>
      <point x="303" y="242"/>
      <point x="319" y="242" type="curve"/>
      <point x="319" y="202" type="line"/>
      <point x="309" y="202"/>
      <point x="268.156" y="201.959"/>
      <point x="242.25" y="201.959" type="curve" smooth="yes"/>
      <point x="145.378" y="201.959"/>
      <point x="62" y="275.274"/>
      <point x="62" y="398" type="curve" smooth="yes"/>
      <point x="62" y="535"/>
      <point x="174" y="606"/>
      <point x="284" y="606" type="curve" smooth="yes"/>
      <point x="494.698" y="606"/>
      <point x="496.075" y="430.731"/>
      <point x="496.075" y="383" type="curve" smooth="yes"/>
      <point x="496.075" y="368.861"/>
      <point x="496" y="191.315"/>
      <point x="496" y="173" type="curve" smooth="yes"/>
      <point x="496" y="35.7334"/>
      <point x="390.319" y="-2.80078"/>
      <point x="334.145" y="-2.80078" type="curve" smooth="yes"/>
      <point x="262.229" y="-2.80078"/>
      <point x="211.196" y="40.3574"/>
      <point x="146.294" y="40.3574" type="curve" smooth="yes"/>
      <point x="110.717" y="40.3574"/>
      <point x="72" y="31"/>
      <point x="55" y="-8" type="curve"/>
    </contour>
    <contour>
      <point x="378.277" y="581" type="line"/>
      <point x="531.999" y="784" type="line"/>
      <point x="578" y="772" type="line"/>
      <point x="406.999" y="546" type="line"/>
    </contour>
    <contour>
      <point x="541.713" y="496.966" type="line"/>
      <point x="562.939" y="514.641"/>
      <point x="589.834" y="523.919"/>
      <point x="616.104" y="523.919" type="curve" smooth="yes"/>
      <point x="667.235" y="523.919"/>
      <point x="716" y="488.775"/>
      <point x="716" y="412" type="curve"/>
      <point x="716" y="251" type="line"/>
      <point x="756" y="251" type="line"/>
      <point x="756" y="412" type="line" smooth="yes"/>
      <point x="756" y="487.498"/>
      <point x="804.192" y="525.181"/>
      <point x="852.414" y="525.181" type="curve" smooth="yes"/>
      <point x="900.692" y="525.181"/>
      <point x="949" y="487.408"/>
      <point x="949" y="412" type="curve" smooth="yes"/>
      <point x="949" y="251" type="line"/>
      <point x="989" y="251" type="line"/>
      <point x="989" y="412" type="line" smooth="yes"/>
      <point x="989" y="514.768"/>
      <point x="922.214" y="564.559"/>
      <point x="854.708" y="564.559" type="curve" smooth="yes"/>
      <point x="808.491" y="564.559"/>
      <point x="761.938" y="541.222"/>
      <point x="736.246" y="495.568" type="curve"/>
      <point x="710.782" y="541.438"/>
      <point x="664.228" y="563.793"/>
      <point x="617.729" y="563.793" type="curve" smooth="yes"/>
      <point x="585.852" y="563.793"/>
      <point x="554.002" y="553.288"/>
      <point x="528.991" y="532.649" type="curve"/>
    </contour>
    <contour>
      <point x="510" y="596" type="line"/>
      <point x="510" y="734" type="line"/>
      <point x="815" y="734" type="line"/>
      <point x="815" y="602" type="line"/>
      <point x="730" y="478.241"/>
      <point x="719.028" y="474.552"/>
      <point x="719.177" y="408" type="curve" smooth="yes"/>
      <point x="719" y="202" type="line" smooth="yes"/>
      <point x="719" y="153.207"/>
      <point x="749.804" y="143"/>
      <point x="774" y="143" type="curve" smooth="yes"/>
      <point x="815" y="143" type="line"/>
      <point x="815" y="0" type="line"/>
      <point x="773.19" y="-0.00292969" type="line" smooth="yes"/>
      <point x="666.365" y="-0.00292969"/>
      <point x="577.854" y="57.9854"/>
      <point x="578" y="208" type="curve" smooth="yes"/>
      <point x="578" y="420" type="line" smooth="yes"/>
      <point x="578" y="488.58"/>
      <point x="587.073" y="503.178"/>
      <point x="651" y="596" type="curve"/>
    </contour>
  </outline>
</glyph>
<glyph name="si_TthI" format="1">
  <advance width="593"/>
  <outline>
    <contour>
      <point x="179.744" y="645" type="line" smooth="yes"/>
      <point x="5" y="645"/>
      <point x="3.63184" y="922"/>
      <point x="208" y="922" type="curve" smooth="yes"/>
      <point x="394" y="922" type="line" smooth="yes"/>
      <point x="500" y="922"/>
      <point x="543.333" y="853.602"/>
      <point x="543.333" y="776" type="curve"/>
      <point x="408" y="776" type="line"/>
      <point x="408" y="804.182"/>
      <point x="387.614" y="805.917"/>
      <point x="349.849" y="806" type="curve" smooth="yes"/>
      <point x="208" y="806" type="line" smooth="yes"/>
      <point x="166.889" y="806"/>
      <point x="167.373" y="755"/>
      <point x="208" y="755" type="curve"/>
      <point x="208" y="645" type="line"/>
    </contour>
    <component base="si_Ttha"/>
  </outline>
</glyph>
<glyph name="si_VI" format="1">
  <advance width="565"/>
  <outline>
    <contour>
      <point x="154" y="819" type="curve" smooth="yes"/>
      <point x="247" y="819" type="line"/>
      <point x="247" y="779" type="line"/>
      <point x="144" y="779" type="line" smooth="yes"/>
      <point x="60.4385" y="779"/>
      <point x="59.2471" y="652"/>
      <point x="144" y="652" type="curve" smooth="yes"/>
      <point x="302.5" y="652" type="line"/>
      <point x="302.5" y="612" type="line"/>
      <point x="154" y="612" type="line" smooth="yes"/>
      <point x="4.69434" y="612"/>
      <point x="7.25098" y="819"/>
    </contour>
    <contour>
      <point x="313.932" y="354" type="curve" smooth="yes"/>
      <point x="314" y="309" type="line"/>
      <point x="265" y="309" type="line" smooth="yes"/>
      <point x="127.373" y="309"/>
      <point x="73" y="285.762"/>
      <point x="73" y="181" type="curve" smooth="yes"/>
      <point x="73" y="111.89"/>
      <point x="132.708" y="40"/>
      <point x="240" y="40" type="curve"/>
      <point x="240" y="0" type="line"/>
      <point x="120.896" y="0"/>
      <point x="33" y="85.7334"/>
      <point x="33" y="181" type="curve" smooth="yes"/>
      <point x="33" y="230.761"/>
      <point x="44.2471" y="268.244"/>
      <point x="70" y="296" type="curve" smooth="yes"/>
      <point x="112.613" y="341.929"/>
      <point x="179.439" y="349"/>
      <point x="274" y="349" type="curve"/>
      <point x="273.506" y="450.283"/>
      <point x="128.243" y="467.491"/>
      <point x="95" y="389" type="curve"/>
      <point x="56" y="399" type="line"/>
      <point x="86.6768" y="516.998"/>
      <point x="314" y="506"/>
    </contour>
    <contour>
      <point x="296" y="0" type="curve"/>
      <point x="296" y="40" type="line"/>
      <point x="409.056" y="40"/>
      <point x="480" y="95.2852"/>
      <point x="480" y="241" type="curve" smooth="yes"/>
      <point x="480" y="411" type="line" smooth="yes"/>
      <point x="480" y="558.715"/>
      <point x="409.056" y="612"/>
      <point x="296" y="612" type="curve"/>
      <point x="296" y="652" type="line"/>
      <point x="455.37" y="652"/>
      <point x="521" y="568.037"/>
      <point x="521" y="411" type="curve" smooth="yes"/>
      <point x="521" y="241" type="line" smooth="yes"/>
      <point x="521" y="83.9629"/>
      <point x="455.37" y="0"/>
    </contour>
    <contour>
      <point x="302.5" y="779" type="line"/>
      <point x="302.5" y="819" type="line"/>
      <point x="378" y="819" type="line" smooth="yes"/>
      <point x="456.359" y="819"/>
      <point x="521.333" y="776"/>
      <point x="521.333" y="673" type="curve"/>
      <point x="481.333" y="673" type="line"/>
      <point x="481.333" y="770"/>
      <point x="423.333" y="779"/>
      <point x="378" y="779" type="curve" smooth="yes"/>
    </contour>
  </outline>
</glyph>
<glyph name="tml_CUu" format="1">
  <advance width="1149"/>
  <outline>
    <contour>
      <point x="604" y="-99" type="line"/>
      <point x="604" y="-139" type="line"/>
      <point x="926" y="-139" type="line" smooth="yes"/>
      <point x="1018.68" y="-139"/>
      <point x="1068" y="-73.284"/>
      <point x="1068" y="-15" type="curve" smooth="yes"/>
      <point x="1068" y="64" type="line" smooth="yes"/>
      <point x="1068" y="182"/>
      <point x="966" y="209"/>
      <point x="905" y="215" type="curve"/>
      <point x="905" y="175" type="line"/>
      <point x="937" y="175"/>
      <point x="1028" y="159"/>
      <point x="1028" y="60" type="curve" smooth="yes"/>
      <point x="1028" y="-15" type="line" smooth="yes"/>
      <point x="1028" y="-62.5082"/>
      <point x="976.412" y="-99"/>
      <point x="925" y="-99" type="curve" smooth="yes"/>
    </contour>
    <contour>
      <point x="81" y="30" type="line" smooth="yes"/>
      <point x="81" y="-83.4831"/>
      <point x="147.598" y="-139"/>
      <point x="233" y="-139" type="curve" smooth="yes"/>
      <point x="549" y="-139" type="line"/>
      <point x="549" y="-99" type="line"/>
      <point x="230" y="-99" type="line" smooth="yes"/>
      <point x="172.252" y="-99"/>
      <point x="121" y="-61.2169"/>
      <point x="121" y="29" type="curve" smooth="yes"/>
      <point x="121" y="268" type="line" smooth="yes"/>
      <point x="121" y="369.609"/>
      <point x="180.604" y="404"/>
      <point x="238" y="404" type="curve" smooth="yes"/>
      <point x="238" y="444" type="line" smooth="yes"/>
      <point x="170.94" y="444"/>
      <point x="81" y="402.364"/>
      <point x="81" y="273" type="curve" smooth="yes"/>
    </contour>
    <contour>
      <point x="812" y="0" type="line"/>
      <point x="812" y="341" type="line"/>
      <point x="852" y="341" type="line"/>
      <point x="852" y="0" type="line"/>
    </contour>
    <contour>
      <point x="661" y="331" type="line"/>
      <point x="661" y="371" type="line"/>
      <point x="912" y="371" type="line"/>
      <point x="912" y="331" type="line"/>
    </contour>
    <contour>
      <point x="508" y="554.727" type="line"/>
      <point x="508" y="594.727" type="line"/>
      <point x="820" y="594.727" type="line"/>
      <point x="820" y="554.727" type="line"/>
    </contour>
    <component base="tml_Ca" xOffset="166"/>
  </outline>
</glyph>
<glyph name="tml_LllU" format="1">
  <advance width="759"/>
  <outline>
    <contour>
      <point x="380.017" y="-192" type="line" smooth="yes"/>
      <point x="627.017" y="-192" type="line" smooth="yes"/>
      <point x="627.017" y="-92" type="line" smooth="yes"/>
      <point x="451.017" y="-92" type="line" smooth="yes"/>
      <point x="451.017" y="-52" type="line"/>
      <point x="614.017" y="-52" type="line" smooth="yes"/>
      <point x="657.017" y="-52"/>
      <point x="667.017" y="-78"/>
      <point x="667.017" y="-101" type="curve" smooth="yes"/>
      <point x="667.017" y="-177" type="line" smooth="yes"/>
      <point x="667.017" y="-220"/>
      <point x="650.017" y="-232"/>
      <point x="614.017" y="-232" type="curve" smooth="yes"/>
      <point x="380.017" y="-232" type="line"/>
    </contour>
    <contour>
      <point x="40.0166" y="544" type="curve" smooth="yes"/>
      <point x="43.0166" y="-52" type="line" smooth="yes"/>
      <point x="43.0166" y="-173.456"/>
      <point x="109.614" y="-232"/>
      <point x="195.017" y="-232" type="curve" smooth="yes"/>
      <point x="326.017" y="-232" type="line"/>
      <point x="326.017" y="-192" type="line"/>
      <point x="191.017" y="-192" type="line" smooth="yes"/>
      <point x="116.712" y="-192"/>
      <point x="81.0166" y="-125.679"/>
      <point x="81.0166" y="-56" type="curve" smooth="yes"/>
      <point x="82.0166" y="550" type="line" smooth="yes"/>
      <point x="82.085" y="598.84"/>
      <point x="95.1895" y="661"/>
      <point x="151.017" y="661" type="curve"/>
      <point x="235.017" y="661" type="line" smooth="yes"/>
      <point x="235.017" y="701" type="line"/>
      <point x="157.017" y="701" type="line" smooth="yes"/>
      <point x="63.1484" y="701"/>
      <point x="39.2803" y="612.688"/>
    </contour>
    <contour>
      <point x="419.017" y="32" type="line"/>
      <point x="459.017" y="32" type="line"/>
      <point x="459.017" y="-146" type="line"/>
      <point x="419.017" y="-146" type="line"/>
    </contour>
    <component base="tml_Ma" xOffset="177.016"/>
  </outline>
</glyph>
<glyph name="tml_NnnAa.alt" format="1">
  <advance width="645"/>
  <outline>
    <contour>
      <point x="565" y="168" type="line"/>
      <point x="605" y="168" type="line"/>
      <point x="605" y="-199" type="line"/>
      <point x="565" y="-199" type="line"/>
    </contour>
    <component base="tml_Ya"/>
  </outline>
</glyph>
<glyph name="tml_RUu" format="1">
  <advance width="1063"/>
  <outline>
    <contour>
      <point x="648" y="555" type="line"/>
      <point x="878" y="555" type="line"/>
      <point x="878" y="595" type="line"/>
      <point x="648" y="595" type="line"/>
    </contour>
    <contour>
      <point x="648" y="-97" type="line"/>
      <point x="648" y="-137" type="line"/>
      <point x="796" y="-137" type="line" smooth="yes"/>
      <point x="896.396" y="-137"/>
      <point x="945" y="-53"/>
      <point x="945" y="25" type="curve" smooth="yes"/>
      <point x="945" y="221" type="line" smooth="yes"/>
      <point x="945" y="310.086"/>
      <point x="866.779" y="330.47"/>
      <point x="820" y="335" type="curve"/>
      <point x="820" y="295" type="line"/>
      <point x="842.114" y="295"/>
      <point x="905" y="284.148"/>
      <point x="905" y="217" type="curve" smooth="yes"/>
      <point x="905" y="25" type="line" smooth="yes"/>
      <point x="905" y="-57"/>
      <point x="847.77" y="-97"/>
      <point x="795" y="-97" type="curve" smooth="yes"/>
    </contour>
    <contour>
      <point x="724" y="1" type="line"/>
      <point x="764" y="1" type="line"/>
      <point x="766" y="591" type="line"/>
      <point x="724" y="591" type="line"/>
    </contour>
    <contour>
      <point x="440" y="1" type="line"/>
      <point x="440" y="595" type="line"/>
      <point x="480" y="595" type="line"/>
      <point x="480" y="1" type="line"/>
    </contour>
    <contour>
      <point x="442" y="555" type="line"/>
      <point x="442" y="595" type="line"/>
      <point x="594" y="595" type="line"/>
      <point x="594" y="555" type="line"/>
    </contour>
    <contour>
      <point x="145" y="29" type="line" smooth="yes"/>
      <point x="145" y="-82.4686"/>
      <point x="210.72" y="-137"/>
      <point x="296" y="-137" type="curve" smooth="yes"/>
      <point x="593" y="-137" type="line"/>
      <point x="593" y="-97" type="line"/>
      <point x="296" y="-97" type="line" smooth="yes"/>
      <point x="238.686" y="-97"/>
      <point x="185" y="-63.1145"/>
      <point x="185" y="28" type="curve" smooth="yes"/>
      <point x="185" y="267" type="line" smooth="yes"/>
      <point x="185" y="329.86"/>
      <point x="206.45" y="364"/>
      <point x="263" y="364" type="curve" smooth="yes"/>
      <point x="321.556" y="364"/>
      <point x="341" y="317.613"/>
      <point x="341" y="284" type="curve" smooth="yes"/>
      <point x="341" y="254.69"/>
      <point x="321.322" y="212.637"/>
      <point x="268" y="212" type="curve" smooth="yes"/>
      <point x="268" y="172" type="line"/>
      <point x="329.968" y="172"/>
      <point x="381" y="226.264"/>
      <point x="381" y="279" type="curve" smooth="yes"/>
      <point x="381" y="292" type="line" smooth="yes"/>
      <point x="381" y="335.077"/>
      <point x="343.819" y="404"/>
      <point x="268" y="404" type="curve" smooth="yes"/>
      <point x="258" y="404" type="line" smooth="yes"/>
      <point x="174.89" y="404"/>
      <point x="145" y="334.196"/>
      <point x="145" y="267" type="curve" smooth="yes"/>
    </contour>
  </outline>
</glyph>
<glyph name="tml_RrAa.alt" format="1">
  <advance width="793"/>
  <outline>
    <contour>
      <point x="711.991" y="-199" type="line"/>
      <point x="711.991" y="595" type="line"/>
      <point x="752.991" y="595" type="line"/>
      <point x="752.991" y="-199" type="line"/>
    </contour>
    <component base="tml_Va" xOffset="-0.00024994"/>
  </outline>
</glyph>
<glyph name="tml_TU" format="1">
  <advance width="944"/>
  <outline>
    <contour>
      <point x="660" y="156" type="line"/>
      <point x="660" y="-56" type="line" smooth="yes"/>
      <point x="660" y="-161"/>
      <point x="606" y="-194"/>
      <point x="526" y="-194" type="curve" smooth="yes"/>
      <point x="405" y="-194" type="line"/>
      <point x="405" y="-234" type="line"/>
      <point x="527" y="-234" type="line" smooth="yes"/>
      <point x="680" y="-234"/>
      <point x="700" y="-122"/>
      <point x="700" y="-56" type="curve" smooth="yes"/>
      <point x="700" y="156" type="line"/>
    </contour>
    <contour>
      <point x="78" y="-136" type="curve" smooth="yes"/>
      <point x="78" y="-154" type="line" smooth="yes"/>
      <point x="78" y="-192"/>
      <point x="125" y="-234"/>
      <point x="188" y="-234" type="curve" smooth="yes"/>
      <point x="351" y="-234" type="line"/>
      <point x="351" y="-194" type="line"/>
      <point x="195" y="-194" type="line" smooth="yes"/>
      <point x="94" y="-194"/>
      <point x="94.0039" y="-97"/>
      <point x="182" y="-97" type="curve" smooth="yes"/>
      <point x="823" y="-97" type="line"/>
      <point x="823" y="582" type="line" smooth="yes"/>
      <point x="783" y="582" type="line" smooth="yes"/>
      <point x="783" y="-57" type="line"/>
      <point x="182" y="-57" type="line" smooth="yes"/>
      <point x="122.003" y="-57"/>
      <point x="78" y="-92"/>
    </contour>
    <contour>
      <point x="89" y="155" type="curve"/>
      <point x="129" y="155" type="line"/>
      <point x="134.39" y="46"/>
      <point x="218.326" y="42"/>
      <point x="273" y="42" type="curve"/>
      <point x="273" y="2" type="line"/>
      <point x="138.445" y="2"/>
      <point x="89" y="65"/>
    </contour>
    <contour>
      <point x="89" y="210" type="curve"/>
      <point x="127" y="210" type="line"/>
      <point x="127" y="314"/>
      <point x="230.001" y="334.128"/>
      <point x="275" y="334" type="curve" smooth="yes"/>
      <point x="542" y="333" type="line" smooth="yes"/>
      <point x="586.784" y="332.872"/>
      <point x="660" y="336"/>
      <point x="660" y="212" type="curve" smooth="yes"/>
      <point x="660" y="210" type="line" smooth="yes"/>
      <point x="700" y="210" type="line"/>
      <point x="700" y="353"/>
      <point x="620" y="374"/>
      <point x="530" y="374" type="curve"/>
      <point x="285" y="374" type="line" smooth="yes"/>
      <point x="188" y="374"/>
      <point x="89" y="330"/>
    </contour>
    <contour>
      <point x="327" y="2" type="line"/>
      <point x="463.018" y="2"/>
      <point x="507" y="98"/>
      <point x="507" y="194" type="curve" smooth="yes"/>
      <point x="507" y="591" type="line"/>
      <point x="467" y="591" type="line"/>
      <point x="467" y="190" type="line" smooth="yes"/>
      <point x="467" y="86"/>
      <point x="408.215" y="42"/>
      <point x="327" y="42" type="curve"/>
    </contour>
    <contour>
      <point x="214" y="351" type="line"/>
      <point x="254" y="351" type="line"/>
      <point x="255" y="589" type="line"/>
      <point x="214" y="589" type="line"/>
    </contour>
    <contour>
      <point x="387" y="555" type="line"/>
      <point x="640" y="555" type="line"/>
      <point x="640" y="595" type="line"/>
      <point x="387" y="595" type="line"/>
    </contour>
    <contour>
      <point x="214" y="555" type="line"/>
      <point x="333" y="555" type="line"/>
      <point x="333" y="595" type="line"/>
      <point x="214" y="595" type="line"/>
    </contour>
  </outline>
</glyph>
